<svg width="228" height="74" fill="none" xmlns="http://www.w3.org/2000/svg"><path d="M201.32 56.3V67.7h-2.64v-4.68h-5.2v4.68h-2.63V56.3h2.64v4.5h5.19v-4.5h2.64Zm8.16 11.6a6.66 6.66 0 0 1-3.16-.74 5.8 5.8 0 0 1-2.22-2.1c-.53-.9-.8-1.93-.8-3.06a5.65 5.65 0 0 1 3.02-5.14c.94-.5 2-.76 3.18-.76.99 0 1.88.17 2.67.52.8.35 1.48.85 2.02 1.5l-1.7 1.57a3.65 3.65 0 0 0-2.86-1.34c-.71 0-1.34.16-1.9.47-.55.3-.98.74-1.3 1.3-.3.55-.46 1.18-.46 1.88 0 .71.16 1.34.46 1.9.32.55.75.98 1.3 1.3.56.3 1.19.46 1.9.46 1.14 0 2.1-.45 2.87-1.36l1.7 1.57a5.3 5.3 0 0 1-2.03 1.52c-.8.34-1.7.52-2.69.52Zm10.66-4.67-1.54 1.6v2.88h-2.62V56.3h2.62v5.33l5.06-5.33h2.93l-4.73 5.08 5.01 6.33h-3.08l-3.66-4.48ZM10.9 71.2s-1.15-.61-1.8-1.13c-.62-.5-.96-.8-1.44-1.44a6 6 0 0 1-1.03-1.93c-.18-.53-.32-1.4-.32-1.4s-.02-.66 0-1.08c.03-.59.08-.92.18-1.5.11-.68.2-1.06.4-1.72.28-.96.47-1.49.92-2.38.36-.71.6-1.1 1.06-1.74.64-.91 1.06-1.39 1.85-2.17.9-.9 1.5-1.3 2.52-2.06 1.6-1.2 4.29-2.75 4.29-2.75h-4.3s-1.8.85-2.9 1.48c-1.27.71-2 1.09-3.15 1.98a16 16 0 0 0-3.5 3.52c-.68.9-1.1 1.42-1.56 2.47-.39.87-.5 1.4-.72 2.34-.17.7-.28 1.08-.35 1.8a9.34 9.34 0 0 0 .35 3.57c.15.55.2.88.46 1.4.16.34.28.53.5.84.21.31.31.5.58.77.26.25.37.38.66.6.32.22.57.35.93.52.36.18.7.22 1.17.3.93.2 1.48.21 2.43.2.77-.02.81 0 1.84-.2.34-.05.94-.3.94-.3Z" fill="#F87777"/><path d="M20.1 37.11c-.48 3.33-.52 5.23-.74 8.58 0 0-.08 4.86-.36 7.97-.18 2.04-.24 3.2-.62 5.2a26.25 26.25 0 0 1-1.1 4.38c-.32.92-.5 1.45-.94 2.31-.66 1.3-1.15 2-2.15 3.08-1.1 1.19-3.28 2.56-3.28 2.56s.87.03 1.44 0c1.26-.07 1.98-.2 3.2-.58a8.88 8.88 0 0 0 2.83-1.3c1-.71 1.45-1.28 2.2-2.25.93-1.2 1.3-2 1.9-3.38.6-1.4.83-2.23 1.19-3.71.37-1.54.46-2.42.66-4 .2-1.6.24-2.5.34-4.12.09-1.37.15-3.5.15-3.5s1.73-.33 2.84-.59c2.03-.48 3.13-.87 5.13-1.48 2.05-.63 3.23-.91 5.23-1.7 1.85-.71 2.83-1.26 4.63-2.1 1.55-.72 2.45-1.06 3.96-1.87a37.5 37.5 0 0 0 4.6-2.84 68.1 68.1 0 0 0 3.28-2.56s1.9-1.74 3-2.97c.88-.98 2.1-2.62 2.1-2.62s1.66-2.1 2.53-3.59a41.29 41.29 0 0 0 1.45-2.86s.6-1.69.93-2.8c.23-.77.4-1.2.55-2 .18-.92.17-1.46.21-2.4.04-1 .16-1.41 0-2.56l-.41-2.93s-.22-1.35-.52-2.17c-.4-1.08-.9-1.57-1.46-2.57-.57-1-1.97-2.21-1.97-2.21s-1.2-1.04-2.11-1.5c-1.21-.61-2-.73-3.35-.91a13.56 13.56 0 0 0-3.56 0c-1.23.11-1.9.3-3.1.54-1.38.27-2.13.49-3.49.8 1.36.25 2.2.1 3.48.64 1.13.46 2.61 1.7 2.61 1.7l1.71 2.35 1.22 2.96.5 2.15s.11 1.82 0 2.98c-.15 1.45-.86 3.64-.86 3.64s-.65 1.96-1.13 3.2a85.76 85.76 0 0 1-2.34 5.22s-1.64 2.47-2.83 3.95a35.72 35.72 0 0 1-3.1 3.47c-1.13 1.13-3.04 2.73-3.04 2.73L38.02 40l-4.59 2.48-5.28 2.1-2.93.66s.12-3.2.3-5.24a60.03 60.03 0 0 1 2.76-14.16l.02-.05c1.1-3.48 1.73-5.49 3.43-8.74a43.23 43.23 0 0 1 2.91-4.79c1.05-1.55 1.6-2.45 2.84-3.86.97-1.12 1.56-1.71 2.68-2.68l.09-.08a16.63 16.63 0 0 1 5.04-3.17c-1.4.12-2.23 0-3.6.31-1.05.25-1.61.5-2.6.9-.8.32-1.25.5-2 .9-1.22.65-1.82 1.15-2.9 2-1.24.96-1.96 1.5-3 2.69-.94 1.07-1.33 1.79-2.1 3-1.14 1.8-1.65 2.88-2.6 4.78-2.08 4.18-3.18 6.6-4.49 11.08-1 3.44-1.38 5.44-1.9 8.98Z" fill="#F87777"/><path d="m19.36 45.7-.22-.02.22.01Zm.74-8.59-.22-.03.22.03Zm1.9-8.98-.22-.06.22.06Zm4.5-11.08.2.1-.2-.1Zm2.6-4.79-.2-.12.2.12Zm2.1-2.99.16.15-.17-.15Zm2.99-2.7.14.18-.14-.17Zm2.9-1.99.1.2-.1-.2Zm2-.9-.09-.2.08.2Zm2.6-.9.04.22-.05-.22Zm1.15.9.12.2-.12-.2Zm-2.68 2.04.15.17-.15-.17ZM37.48 8.4l.17.15-.17-.15Zm-2.84 3.86-.19-.12.2.12Zm-2.9 4.8.2.1-.2-.1Zm-3.46 8.78.22.07-.22-.07Zm-1.78 6.89.22.04-.22-.04ZM25.53 40l-.23-.02.23.02Zm-.31 5.24h-.23l-.01.29.29-.07-.05-.22Zm2.93-.65.05.22h.02l.01-.01-.08-.21Zm5.28-2.1.09.2h.02l-.1-.2Zm4.6-2.5.1.2h.02l-.13-.2Zm3.48-2.54.13.18h.01l-.14-.18Zm3.04-2.73-.16-.16.16.16Zm3.1-3.47-.18-.14.18.14Zm2.83-3.95.2.12v-.03l-.2-.1Zm2.34-5.22.22.08-.22-.08Zm1.13-3.2.22.08-.22-.08Zm.86-3.64.22.02-.22-.02Zm0-2.98.22-.01v-.04l-.22.05Zm-.5-2.15.22-.05v-.02l-.01-.01-.2.08ZM53.1 7.15l.21-.1v-.02l-.02-.02-.19.14ZM51.4 4.8l.18-.14-.02-.02-.02-.02-.15.18ZM48.76 3.1l-.08.2.08-.2Zm0-1.44.05.22-.05-.22Zm3.1-.54-.01-.23.02.23Zm3.57 0-.03.22.03-.22Zm3.35.91-.1.2.1-.2Zm2.11 1.5-.15.17.15-.17Zm3.43 4.78.21-.08-.21.08Zm.52 2.17.22-.03-.22.03Zm.41 2.93.23-.03-.23.03Zm0 2.55h-.23.23Zm-.2 2.42-.23-.04.22.04Zm-.56 2 .22.06-.22-.06Zm-.93 2.8.2.09v-.01l.01-.01-.21-.08Zm-1.45 2.85-.2-.11.2.11Zm-2.52 3.59-.18-.14.18.14Zm-2.1 2.62-.18-.15.17.15Zm-3 2.97.14.18v-.01l-.15-.17Zm-3.3 2.56.13.19-.13-.19Zm-4.59 2.84.1.2-.1-.2Zm-3.96 1.87-.1-.2.1.2Zm-4.63 2.1.09.22-.09-.21Zm-5.23 1.7-.07-.22.07.22Zm-5.13 1.48.05.22-.05-.22Zm-2.84.58-.04-.22-.18.04v.18h.22Zm-.15 3.51.23.02-.23-.02Zm-.34 4.13.22.03-.22-.03Zm-.66 3.99.22.05-.22-.05Zm-1.2 3.71.21.1-.2-.1Zm-1.88 3.38-.18-.14.18.14Zm-2.21 2.24-.13-.18.13.18Zm-2.84 1.3.07.22-.07-.21Zm-3.2.6.02.22-.01-.23Zm1.85-2.57.17.15-.17-.15Zm2.15-3.08.2.1-.2-.1Zm.94-2.3-.22-.08.22.07Zm1.1-4.39-.22-.04.22.04Zm.62-5.2-.22-.02.22.02Zm-9.9 16.4-.14.19.14-.18Zm-1.44-1.43-.18.14.18-.14ZM6.63 66.7l.21-.08-.21.08Zm-.32-1.4H6.1v.04l.22-.04Zm0-1.08.23.01H6.3Zm.18-1.5-.22-.04.22.04Zm.4-1.72.21.06L6.9 61Zm.92-2.38.2.1-.2-.1Zm1.06-1.74.19.13-.19-.13Zm1.85-2.17.16.16-.16-.16Zm2.52-2.06.13.18-.13-.18Zm4.29-2.75.11.2.73-.43h-.84v.23Zm-4.3 0v-.23h-.04l-.05.02.1.2Zm-2.9 1.48.1.2-.1-.2Zm-3.15 1.98.14.18-.14-.18Zm-3.5 3.52.18.13-.18-.13Zm-1.56 2.47.2.09-.2-.1Zm-.72 2.34-.22-.05.22.05Zm-.35 1.8.23.02-.23-.03Zm0 1.81.23-.02-.23.02Zm.35 1.76-.22.05.22-.05Zm.46 1.4.2-.1-.2.1Zm.5.84.19-.12-.19.12Zm.58.77.16-.16-.16.16Zm.66.6-.13.18.13-.19Zm2.1.83.04-.23-.04.23Zm2.43.18v.23-.23Zm1.84-.18.04.22-.04-.22ZM28.3 25.79l-.21-.07.21.07ZM40.25 5.64l.14.17-.14-.17ZM19.59 45.71c.22-3.37.25-5.25.74-8.56l-.45-.07c-.49 3.34-.53 5.25-.74 8.6l.45.03Zm.74-8.56a55.9 55.9 0 0 1 1.89-8.95l-.44-.13a56.34 56.34 0 0 0-1.9 9.01l.45.07Zm1.89-8.95c1.3-4.47 2.4-6.87 4.48-11.04l-.4-.2c-2.1 4.18-3.2 6.61-4.52 11.1l.44.14Zm4.48-11.04c.95-1.91 1.45-2.99 2.58-4.77l-.38-.25c-1.15 1.81-1.66 2.91-2.6 4.81l.4.2Zm2.58-4.77c.77-1.22 1.16-1.91 2.08-2.97l-.34-.3c-.95 1.1-1.36 1.82-2.12 3.02l.38.25Zm2.08-2.97c1.02-1.17 1.73-1.7 2.97-2.67l-.28-.35c-1.24.97-1.98 1.52-3.03 2.72l.34.3Zm2.97-2.67c1.08-.84 1.67-1.33 2.86-1.97l-.21-.4c-1.23.66-1.85 1.17-2.93 2.02l.28.35Zm2.86-1.97c.74-.4 1.18-.57 1.98-.89L39 3.47c-.8.32-1.25.5-2.02.91l.21.4Zm1.98-.89c1-.4 1.54-.65 2.56-.89l-.1-.44c-1.07.25-1.64.51-2.63.91l.17.42ZM41.73 3c.67-.15 1.2-.2 1.75-.22.55-.03 1.12-.03 1.83-.09l-.04-.45c-.7.06-1.24.06-1.8.08-.57.03-1.13.08-1.84.24l.1.44Zm3.48-.75a14 14 0 0 0-2.49 1.24l.24.39c.9-.55 1.43-.82 2.41-1.2l-.16-.43ZM40 5.55a23.56 23.56 0 0 0-2.7 2.7l.34.3c.96-1.1 1.55-1.7 2.66-2.66l-.3-.34Zm-2.7 2.7c-1.25 1.42-1.81 2.34-2.86 3.89l.38.25c1.05-1.56 1.6-2.45 2.82-3.84l-.34-.3Zm-2.86 3.89a43.48 43.48 0 0 0-2.92 4.8l.4.22c1.01-1.93 1.68-2.96 2.9-4.77l-.38-.25Zm-6.38 13.64a54.89 54.89 0 0 0-1.8 6.9l.45.1c.53-2.72.95-4.22 1.78-6.87l-.43-.13Zm-1.8 6.9a60.26 60.26 0 0 0-.97 7.3l.45.04c.26-2.85.42-4.45.97-7.25l-.45-.08Zm-.97 7.3a97.71 97.71 0 0 0-.3 5.11v.1l-.01.03v.01l.23.01.22.01v-.14a132.9 132.9 0 0 1 .31-5.09l-.45-.04Zm-.03 5.48 2.93-.65-.1-.44-2.93.65.1.44Zm2.96-.66 5.29-2.1-.17-.43-5.28 2.1.16.43Zm5.31-2.12 4.6-2.48-.22-.4-4.6 2.48.22.4Zm4.62-2.5 3.48-2.55-.26-.36-3.49 2.55.27.36Zm3.35-2.73.15.17a8.13 8.13 0 0 1 .08-.07l.23-.2a85.51 85.51 0 0 0 2.74-2.47l-.32-.32a44.51 44.51 0 0 1-3 2.7l-.02.01.14.18Zm3.2-2.57a35.92 35.92 0 0 0 3.11-3.49l-.35-.28a35.49 35.49 0 0 1-3.08 3.45l.32.32Zm3.11-3.49a50.74 50.74 0 0 0 2.78-3.86l.05-.08.02-.02-.19-.13-.19-.13-.01.03-.06.08a89.46 89.46 0 0 1-2.75 3.83l.35.28Zm2.66-4.1.2.1h.01a2.38 2.38 0 0 0 .06-.13 98.09 98.09 0 0 0 2.29-5.1L52.6 22a62.12 62.12 0 0 1-2.26 5.06l-.05.1-.02.03.2.1Zm2.56-5.13a62.25 62.25 0 0 0 1.1-3.12l.02-.06v-.02l-.2-.08-.22-.07-.01.03-.02.06a119.16 119.16 0 0 1-1.1 3.1l.43.16Zm.91-3.28.22.07v-.02a15.86 15.86 0 0 0 .37-1.26c.2-.73.41-1.66.5-2.4l-.46-.05c-.07.7-.28 1.6-.48 2.33a31.44 31.44 0 0 1-.36 1.24v.02l.21.07Zm1.08-3.62a16.77 16.77 0 0 0 0-2.93 18.96 18.96 0 0 1 0-.08l-.22.01-.23.02v.08a24.63 24.63 0 0 1 0 2.86l.45.04Zm0-3.05-.5-2.15-.44.1.5 2.15.44-.1Zm-.51-2.18L53.3 7.06l-.41.17 1.21 2.97.42-.17ZM53.28 7l-1.71-2.34-.37.27 1.71 2.34.37-.27Zm-1.9-2.2.15-.18-.02-.01a9 9 0 0 0-.24-.2l-.64-.48a9.66 9.66 0 0 0-1.77-1.05l-.17.42c.53.22 1.17.63 1.68 1a18.17 18.17 0 0 1 .85.66h.01v.01l.15-.17Zm-2.52-1.92a6.19 6.19 0 0 0-1.77-.44c-.56-.06-1.09-.09-1.76-.2l-.08.44c.69.12 1.26.15 1.79.21s1.03.15 1.65.4l.17-.41Zm-3.52-.2c1.37-.32 2.11-.54 3.48-.81l-.1-.44c-1.36.27-2.13.5-3.48.8l.1.45Zm3.48-.81c1.22-.24 1.87-.43 3.08-.54L51.86.9c-1.24.12-1.94.3-3.13.55l.09.44Zm3.08-.54c1.38-.12 2.16-.18 3.5 0l.07-.45c-1.4-.19-2.22-.12-3.61 0l.04.45Zm3.5 0c1.35.18 2.11.3 3.29.9l.2-.41a9.25 9.25 0 0 0-3.42-.94l-.06.45Zm3.29.9a9.56 9.56 0 0 1 1.86 1.3l.15.12.04.03h.01v.01l.15-.17.15-.17-.02-.01a7.2 7.2 0 0 0-.19-.16c-.13-.11-.3-.26-.52-.42a10 10 0 0 0-1.43-.94l-.2.4Zm2.21 1.29-.15.17.02.01a9.18 9.18 0 0 1 .74.7c.42.43.9.97 1.16 1.44l.4-.22c-.3-.53-.81-1.1-1.24-1.53a15.87 15.87 0 0 0-.76-.73h-.02a.17.17 0 0 0 0-.01l-.15.17Zm1.77 2.32c.3.51.56.9.8 1.27s.45.75.65 1.27l.42-.16a6.8 6.8 0 0 0-.69-1.36c-.25-.39-.5-.75-.78-1.24l-.4.22Zm1.45 2.54a10.2 10.2 0 0 1 .5 2.07v.05l.23-.03.22-.03v-.02l-.01-.05a13.95 13.95 0 0 0-.52-2.15l-.42.16Zm.73 2.1-.23.02v.02l.01.06.03.22c.03.19.07.44.1.74.1.59.2 1.32.28 1.9l.45-.07-.27-1.9-.1-.73-.04-.22V10.45l-.23.03Zm.19 2.95c.15 1.12.04 1.5 0 2.51l.45.02c.04-.97.16-1.42 0-2.59l-.45.06Zm0 2.51c-.05.96-.04 1.48-.2 2.39l.44.08c.17-.95.17-1.5.2-2.45l-.45-.02Zm-.2 2.39c-.15.78-.32 1.18-.56 1.97l.44.13c.23-.76.4-1.2.56-2.02l-.45-.08Zm-.56 1.97a53.94 53.94 0 0 1-.9 2.71l-.02.06v.01l.2.08.22.08.01-.02.02-.06.07-.2a102.53 102.53 0 0 0 .84-2.53l-.44-.13Zm-.71 2.86-.2-.1v.01l-.02.02-.02.05a41.22 41.22 0 0 1-1.4 2.77l.39.23a30.25 30.25 0 0 0 1.42-2.8l.03-.06v-.02l-.2-.1Zm-1.65 2.75a29.8 29.8 0 0 1-2.23 3.21l-.2.26-.05.07-.01.01v.01l.17.14.18.14.02-.02c0-.02.03-.04.05-.07a55.16 55.16 0 0 0 .87-1.16 30.2 30.2 0 0 0 1.6-2.36l-.4-.23Zm-2.32 3.7-.18-.14-.02.02a24.9 24.9 0 0 0-.19.25 70.78 70.78 0 0 1-1.89 2.34l.34.3a37.92 37.92 0 0 0 2.07-2.56l.04-.05v-.02h.01l-.18-.14Zm-2.28 2.47a37.58 37.58 0 0 1-2.9 2.88l-.06.05-.02.02.15.17.15.17.03-.02.06-.06a59.8 59.8 0 0 0 2.93-2.9l-.34-.31Zm-2.83 3.12-.14-.17a2.18 2.18 0 0 1-.09.07 69.27 69.27 0 0 1-3.19 2.48l.26.37a49.73 49.73 0 0 0 3.22-2.5l.06-.06.02-.01-.14-.18Zm-3.42 2.38a37.27 37.27 0 0 1-4.57 2.82l.22.4c1.86-1 2.89-1.63 4.61-2.85l-.26-.37Zm-4.57 2.82c-1.5.8-2.38 1.14-3.95 1.87l.2.4c1.54-.7 2.45-1.06 3.97-1.87l-.22-.4Zm-3.95 1.87c-1.8.84-2.77 1.38-4.6 2.1l.16.42c1.85-.73 2.85-1.28 4.63-2.11l-.19-.41Zm-4.6 2.1c-2 .77-3.16 1.05-5.23 1.68l.13.43c2.05-.62 3.24-.9 5.26-1.7l-.17-.41Zm-5.23 1.68c-2 .61-3.1 1-5.12 1.48l.1.44c2.05-.48 3.17-.88 5.15-1.49l-.13-.43Zm-5.12 1.48a59.5 59.5 0 0 1-2.8.58h-.02l.04.22.04.23h.02l.06-.02a81.93 81.93 0 0 0 2.77-.57l-.1-.44Zm-2.78.8h-.23a1.5 1.5 0 0 1 0 .1 188.86 188.86 0 0 1-.14 3.4l.45.03a104.8 104.8 0 0 0 .14-3.42v-.07a1.58 1.58 0 0 0 0-.03h-.22Zm-.37 3.5c-.1 1.61-.15 2.51-.35 4.1l.45.07c.2-1.62.25-2.53.35-4.14l-.45-.03Zm-.35 4.1c-.2 1.58-.28 2.46-.65 3.98l.44.1c.37-1.55.47-2.45.66-4.01l-.45-.06Zm-.65 3.98c-.36 1.47-.58 2.3-1.18 3.67l.41.18a19.6 19.6 0 0 0 1.2-3.75l-.43-.1Zm-1.18 3.67a13.3 13.3 0 0 1-1.86 3.33l.36.27a13.74 13.74 0 0 0 1.91-3.42l-.41-.18Zm-1.86 3.33a8.8 8.8 0 0 1-2.16 2.2l.26.37a9.24 9.24 0 0 0 2.26-2.3l-.36-.27Zm-2.16 2.2c-.97.68-1.62.9-2.78 1.27l.14.43a9.1 9.1 0 0 0 2.9-1.33l-.26-.37Zm-2.78 1.27c-1.19.38-1.89.5-3.14.58l.03.45c1.28-.07 2.02-.2 3.25-.6l-.14-.43Zm-3.14.58a14.55 14.55 0 0 1-1.41 0l-.01.22-.01.23a17.26 17.26 0 0 1 .51.01l.95-.01-.03-.45Zm-1.42.22.12.2v-.01l.02-.01.07-.05a24.02 24.02 0 0 0 3.24-2.54l-.33-.3c-.54.57-1.35 1.2-2.03 1.7a28.92 28.92 0 0 1-1.2.8l-.01.02.12.2Zm3.45-2.4a11.87 11.87 0 0 0 2.19-3.13l-.4-.21a11.43 11.43 0 0 1-2.12 3.02l.33.31Zm2.19-3.13c.45-.89.62-1.43.94-2.34l-.43-.15c-.32.92-.48 1.43-.92 2.28l.4.2Zm.94-2.34c.59-1.69.78-2.68 1.11-4.42l-.44-.08c-.33 1.73-.52 2.7-1.1 4.35l.43.15Zm1.11-4.42c.39-2.02.45-3.19.63-5.22l-.45-.04c-.19 2.04-.24 3.18-.62 5.18l.44.08Zm.63-5.22a101.7 101.7 0 0 0 .34-7.18l.01-.59V45.7h-.22l-.23-.01v.05a46.75 46.75 0 0 1-.01.75l-.06 2.01c-.05 1.6-.14 3.6-.28 5.14l.45.04ZM10.9 71.19l.1-.2H11l-.04-.02a16.64 16.64 0 0 1-1.71-1.08l-.29.36a10.62 10.62 0 0 0 1.79 1.12l.04.02h.01l.1-.2Zm-1.66-1.3a6.72 6.72 0 0 1-1.4-1.4l-.37.28c.5.65.85.97 1.48 1.48l.29-.36Zm-1.4-1.4a5.78 5.78 0 0 1-1-1.87l-.44.15c.29.83.55 1.3 1.07 2l.36-.28Zm-1-1.87a7.44 7.44 0 0 1-.3-1.32l-.01-.02v-.01l-.23.03-.22.04a6.38 6.38 0 0 0 .1.5c.05.29.13.65.22.93l.43-.15ZM6.3 65.3h.23v-.03a19.3 19.3 0 0 1 0-1.04l-.45-.02a12.8 12.8 0 0 0 0 1.07v.02h.22Zm.23-1.07c.03-.57.07-.9.17-1.47l-.44-.08c-.1.59-.15.93-.18 1.53l.45.02Zm.17-1.47c.12-.67.2-1.04.4-1.7l-.44-.12c-.2.67-.29 1.05-.4 1.74l.44.08Zm.4-1.7c.27-.94.46-1.46.9-2.34l-.4-.2c-.46.9-.66 1.45-.94 2.42l.43.12Zm.9-2.34c.36-.7.6-1.07 1.05-1.71l-.37-.26c-.47.65-.71 1.05-1.08 1.77l.4.2Zm1.05-1.71a13.6 13.6 0 0 1 1.82-2.14l-.32-.32c-.8.79-1.22 1.27-1.87 2.2l.37.26Zm1.82-2.14c.9-.88 1.47-1.28 2.5-2.04l-.28-.37c-1.01.76-1.62 1.18-2.54 2.09l.32.32Zm2.5-2.04a40.36 40.36 0 0 1 3.82-2.48l.32-.19.09-.05a2.18 2.18 0 0 1 .03-.02l-.11-.2-.12-.19-.03.02-.09.05a60.63 60.63 0 0 0-4.19 2.7l.27.36Zm4.15-3.16h-4.3v.45h4.3v-.45Zm-4.3.23-.09-.2h-.02l-.06.03a70.05 70.05 0 0 0-2.84 1.45l.22.4a43.14 43.14 0 0 1 2.82-1.44l.06-.03h.01l-.1-.21Zm-3.01 1.28c-1.27.71-2.02 1.1-3.18 2l.28.36c1.13-.88 1.85-1.25 3.12-1.97l-.22-.39Zm-3.18 2c-1.55 1.2-2.36 2-3.54 3.56l.36.27a15.78 15.78 0 0 1 3.46-3.47l-.28-.36ZM3.5 56.74c-.68.91-1.1 1.45-1.59 2.51l.42.19c.45-1.02.85-1.51 1.53-2.43l-.36-.27Zm-1.59 2.51c-.4.9-.51 1.46-.73 2.39l.44.1c.22-.93.33-1.45.7-2.3l-.4-.19Zm-.73 2.39c-.17.69-.28 1.1-.35 1.82l.45.05c.06-.7.17-1.07.34-1.77l-.44-.1Zm-.35 1.82a8.3 8.3 0 0 0 0 1.86l.45-.04a7.86 7.86 0 0 1 0-1.77l-.45-.05Zm0 1.86c.07.72.17 1.12.35 1.8l.44-.12a9.12 9.12 0 0 1-.34-1.72l-.45.04Zm.35 1.8c.14.54.21.9.47 1.43l.41-.2c-.24-.49-.3-.79-.44-1.35l-.44.11Zm.47 1.43c.18.37.3.56.52.88l.38-.25a5.58 5.58 0 0 1-.49-.82l-.4.2Zm.52.88c.2.3.32.52.61.8l.32-.32c-.25-.24-.33-.4-.55-.73l-.38.25Zm.61.8c.25.24.38.4.69.62l.26-.37c-.27-.2-.36-.31-.63-.57l-.32.32Zm.69.62c.34.24.6.37.96.55l.2-.41a5.3 5.3 0 0 1-.9-.51l-.26.37Zm.96.55c.4.19.78.23 1.22.32l.09-.45c-.48-.1-.78-.12-1.11-.28l-.2.4Zm1.22.32a10 10 0 0 0 2.48.19v-.45c-.95.01-1.48 0-2.4-.19l-.08.45Zm2.48.19c.38 0 .6 0 .84-.03.25-.02.53-.07 1.04-.16l-.08-.45c-.51.1-.77.14-1 .16-.22.02-.41.02-.8.03v.45Zm1.88-.19a4.49 4.49 0 0 0 .95-.3l.02-.01H11l-.08-.22-.09-.2a11.38 11.38 0 0 0-.33.12c-.2.07-.41.14-.56.16l.08.45Zm55.48-58.34-.42-2.93-.45.06.42 2.93.45-.06ZM28.5 25.91l.02-.05-.43-.14-.02.06.43.13Zm.02-.05c1.1-3.48 1.72-5.47 3.41-8.7l-.4-.21c-1.7 3.27-2.35 5.29-3.44 8.77l.43.14ZM40.3 5.89l.08-.08-.3-.34-.08.08.3.34Zm.08-.08c.94-.8 1.5-1.28 2.57-1.93l-.24-.4c-1.1.68-1.68 1.18-2.62 2l.3.33Zm-.3-.34-.08.08.3.34.08-.08-.3-.34Zm-12 20.25-.02.06.43.13.02-.05-.43-.14Z" fill="#F87777"/><path d="M40.04 57.03c1.13 0 2.11.24 2.95.7a4.81 4.81 0 0 1 1.98 1.95c.48.85.72 1.83.72 2.94 0 1.1-.23 2.07-.68 2.91a4.78 4.78 0 0 1-1.9 1.96c-.8.46-1.73.7-2.79.7a4.5 4.5 0 0 1-3.54-1.45V72H34.2v-9.36c0-1.1.24-2.07.73-2.91a5.01 5.01 0 0 1 2.04-1.98c.88-.48 1.9-.72 3.06-.72Zm-.1 9c.95 0 1.72-.32 2.32-.94.6-.64.9-1.46.9-2.47 0-1-.3-1.83-.9-2.47a3.04 3.04 0 0 0-2.32-.95c-.97 0-1.74.3-2.33.93a3.47 3.47 0 0 0-.87 2.47c0 1.02.29 1.85.87 2.49.6.62 1.38.93 2.33.93Zm13.43 0c1.18 0 2.17-.4 2.96-1.19l1.34 1.57a4.44 4.44 0 0 1-1.83 1.33c-.75.3-1.6.44-2.53.44-1.2 0-2.25-.23-3.16-.7a5.23 5.23 0 0 1-2.85-4.88c0-1.06.23-2.01.7-2.85a5.22 5.22 0 0 1 2-2 5.86 5.86 0 0 1 2.9-.72c1.02 0 1.94.23 2.77.68.85.43 1.51 1.06 2 1.9.49.8.73 1.77.73 2.87l-8.33 1.63c.26.62.67 1.1 1.24 1.42.57.33 1.26.5 2.06.5Zm-.47-6.96c-.94 0-1.7.3-2.28.92a3.47 3.47 0 0 0-.86 2.47v.02l6.16-1.18a2.88 2.88 0 0 0-1.08-1.62 3.08 3.08 0 0 0-1.94-.6Zm16.35.25h-5.8v8.72h-2.56V57.16h8.36v2.16Zm12.17-2.16v10.88h-2.43v-1.38c-.4.49-.91.87-1.52 1.14-.6.26-1.25.38-1.96.38a4.8 4.8 0 0 1-3.45-1.2c-.84-.81-1.26-2.02-1.26-3.6v-6.22h2.55v5.87c0 .98.22 1.71.65 2.2.45.47 1.09.71 1.92.71.9 0 1.6-.28 2.14-.83.54-.57.81-1.39.81-2.45v-5.5h2.55Zm8.4 11.02a6.38 6.38 0 0 1-3.04-.7 5.26 5.26 0 0 1-2.86-4.88 5.3 5.3 0 0 1 2.83-4.85c.9-.48 1.92-.72 3.06-.72 1.08 0 2.02.22 2.82.66a4.22 4.22 0 0 1 1.83 1.87L92.5 60.7a3 3 0 0 0-1.18-1.12 3.08 3.08 0 0 0-1.53-.38 3.2 3.2 0 0 0-3.3 3.4c0 1.03.3 1.86.92 2.49.62.6 1.42.91 2.38.91.56 0 1.07-.12 1.53-.36.48-.26.87-.64 1.18-1.14l1.96 1.14a4.46 4.46 0 0 1-1.85 1.9c-.8.43-1.74.64-2.8.64Zm20.62-11.15c1.38 0 2.46.4 3.27 1.2.8.8 1.2 1.98 1.2 3.57v6.24h-2.55v-5.9c0-.96-.21-1.67-.63-2.15-.42-.49-1.03-.73-1.82-.73-.85 0-1.54.28-2.05.85-.52.56-.78 1.36-.78 2.4v5.53h-2.55v-5.9c0-.96-.2-1.67-.63-2.15-.42-.49-1.03-.73-1.81-.73a2.7 2.7 0 0 0-2.08.83c-.5.56-.76 1.37-.76 2.43v5.52H96.7V57.16h2.43v1.38c.4-.49.92-.86 1.53-1.12a5.2 5.2 0 0 1 2.04-.39c.81 0 1.53.16 2.16.47.64.3 1.14.75 1.5 1.35a4.44 4.44 0 0 1 1.74-1.33c.7-.32 1.49-.49 2.34-.49Zm12.99 0c1.12 0 2.1.24 2.95.7a4.82 4.82 0 0 1 1.98 1.95c.47.85.71 1.83.71 2.94a6.1 6.1 0 0 1-.67 2.91 4.78 4.78 0 0 1-1.9 1.96c-.8.46-1.73.7-2.79.7a4.5 4.5 0 0 1-3.55-1.45V72h-2.56v-9.36c0-1.1.24-2.07.73-2.91a5 5 0 0 1 2.04-1.98c.88-.48 1.9-.72 3.06-.72Zm-.1 9c.95 0 1.72-.32 2.32-.94.6-.64.9-1.46.9-2.47 0-1-.3-1.83-.9-2.47a3.04 3.04 0 0 0-2.33-.95c-.96 0-1.74.3-2.32.93a3.47 3.47 0 0 0-.88 2.47c0 1.02.3 1.85.88 2.49.6.62 1.37.93 2.32.93Zm18.89-8.87v10.88h-2.43v-1.4c-.42.51-.94.9-1.56 1.16a5.83 5.83 0 0 1-4.9-.3 5.01 5.01 0 0 1-1.95-1.97 6 6 0 0 1-.7-2.93c0-1.11.23-2.09.7-2.92a5.01 5.01 0 0 1 1.95-1.95 5.83 5.83 0 0 1 4.8-.33c.6.25 1.1.6 1.54 1.08v-1.32h2.55ZM136.47 66c.94 0 1.71-.3 2.32-.93.62-.63.92-1.45.92-2.47 0-1.02-.3-1.84-.92-2.47a3.11 3.11 0 0 0-2.32-.93c-.94 0-1.71.3-2.32.93-.6.63-.9 1.45-.9 2.47 0 1.02.3 1.84.9 2.47.6.62 1.38.93 2.32.93Zm21.07-.12v4.67h-2.38v-2.5h-9.57v-10.9h2.55v8.73h5.2v-8.72h2.55v8.72h1.65Zm12.58-8.72v10.88h-2.42v-1.38c-.41.49-.92.87-1.53 1.14-.6.26-1.25.38-1.96.38-1.45 0-2.6-.4-3.44-1.2-.85-.81-1.27-2.02-1.27-3.6v-6.22h2.55v5.87c0 .98.22 1.71.65 2.2.45.47 1.09.71 1.92.71.9 0 1.6-.28 2.14-.83.54-.57.81-1.39.81-2.45v-5.5h2.55Zm12.64 0v10.88h-2.29v-3.28h-2.87l-2.22 3.28h-2.73l2.56-3.63a3.72 3.72 0 0 1-1.81-1.24 3.52 3.52 0 0 1-.61-2.1c0-1.25.44-2.21 1.32-2.9a5.85 5.85 0 0 1 3.65-1.01h5Zm-4.92 2.14c-1.64 0-2.46.62-2.46 1.85s.8 1.84 2.38 1.84h2.71v-3.7h-2.63Z" fill="#fff"/><path d="M227 42.85v5.2H70.05v-5.2h.63V28.7h1.01v-1.35h.16v-.67h1v-2.7h1.28v2.7h1.01v.88h1.92v-.88h1v-2.7h1.28v2.7h1v.67h.17v1.35h1v14.14h1.23v-1.4l-.59-.58V24.2h2.18l.32-.46 2.02-.16 1.96.16.38.46h2.17v16.68l-.63.57v1.4h1.32c.08-.13.23-.41.27-.41h.64v-5.77L92.5 36v-.83s-1.17-.6-.8-.84c.21-.13.64 0 .64 0v-.62h1.06v-.2h.85v.2h.75v-.2h.85v.2h.69v-.2h.85v.2h.85v-1.09s-.55-.29-.37-.42c.06-.05.2-.05.2-.05v-.2h.75v-.42h-.32v-.99h5.74s.26-.35.48-.52c.11-.09.19-.13.32-.2.16-.1.25-.14.42-.21.16-.07.25-.13.43-.16s.47-.05.47-.05.3.02.48.05c.18.03.27.09.43.16.17.07.26.11.42.2l.32.21c.22.17.48.52.48.52h5.74v.99h-.32v.41h.74v.21s.15 0 .21.05c.18.13-.37.42-.37.42v1.1h.85v-.22h.85v.21h.7v-.2h.84v.2h.75v-.2h.84v.2h1.07v.62s.43-.13.63 0c.38.25-.8.84-.8.84v.83l-.26.67v5.77h.64c.04 0 .2.28.27.42h.74l-.1-.63.31-.3v-5.05s-.24-.33-.32-.57c-.2-.61.32-1.61.32-1.61h1.6V32.6s-.17-.17-.16-.31c0-.18.26-.37.26-.37s.04-.38.1-.62c.06-.17.07-.27.17-.41.1-.15.2-.2.31-.32 0 0 .22-.17.32-.3.1-.14.14-.23.22-.37l.2-.42v-.46s-.15-.11-.15-.21c0-.1.16-.21.16-.21v-1.25h-.53v-.1h.53v-.42H125.07v.42h.53v.1h-.53v1.25s.16.1.16.2c0 .11-.16.22-.16.22v.46l.21.42c.08.14.11.23.22.36.1.14.31.31.31.31.13.13.23.17.32.32.1.14.11.24.16.41.07.24.1.62.1.62s.28.2.28.37c0 .14-.16.31-.16.31v2.08h1.59s.52 1 .32 1.6c-.08.25-.32.58-.32.58v5.04l.32.31-.1.63h.68v-4.63h2.29V28h.69v-1.46h1.8v-.41h.64v-.21l-.32-.31s.21-.48.43-.73c.17-.21.3-.3.53-.47.23-.17.63-.36.63-.36l.38-.16.2-.67H136.45l.1-1.67.11 1.67h.16l.21.67.37.16s.4.2.64.36c.23.16.35.26.53.47.22.25.43.73.43.73l-.32.3v.22h.64v.41h1.8V28h.7v10.23h2.28v4.63l.69-.47v-2.55l.58-.52.7-.26V37.2l-.22-.32v-.15l.21-.21.37-.31.9-.1.91-.37-.16-.68.8-.62v-.73l.32-.31v-1.35s-.28-.46-.16-.73c.1-.24.58-.36.58-.36.07-.23.14-.5.32-.78.22-.34.37-.53.69-.78.36-.29.62-.43 1.06-.57.18-.06.48-.1.48-.1l.32-.84.05-.52v-.72h-.48v-.26h.48v-.47h.22v.47h.47v.26h-.47v.72l.05.52.32.83s.3.05.47.1c.45.15 1.01.58 1.01.58s.53.44.75.78c.18.28.25.55.32.78 0 0 .47.12.58.36.12.27-.16.73-.16.73v1.35l.32.31v.73l.8.62-.16.68.9.36.9.1.38.32.2.2v.16l-.2.31V39.05l.69.26.58.52v2.55l.69.47 5.9-13.62h8.97v2.6h-4.09l-1.27 11.02h11.84L181 30.17h-4.46v-2.7h9.93l6.43 15.38h.48v-.58h.32v-5.35s-.53.02-.53-.2c0-.18.31-.32.31-.32v-.46l-.1-.26v-.58l.05-.1.05-.26v-.16h.48V35h.1v.78h7.55v-3.22s-.75-.37-.53-.57c.15-.15.53 0 .53 0v-.47h.58v-.57h5v.57h.53v.31h4.46v-.31h.53v-.57h5v.57h.58v.47s.38-.15.53 0c.22.2-.53.57-.53.57v3.22h7.54V35h.1v-.42h.49v.16l.05.26.05.1v.58l-.1.26v.46s.32.14.31.32c0 .22-.53.2-.53.2v5.35h.32v.58h.48Z" fill="#F87777"/></svg>