<svg width="133" height="146" fill="none" xmlns="http://www.w3.org/2000/svg"><path d="M21.2 143.96s-2.34-1.23-3.65-2.29a14.1 14.1 0 0 1-2.93-2.93 12.23 12.23 0 0 1-2.1-3.93 21.52 21.52 0 0 1-.65-2.84s-.04-1.34 0-2.2c.06-1.2.16-1.87.36-3.05.23-1.39.41-2.16.8-3.5a24.5 24.5 0 0 1 1.9-4.84 24.59 24.59 0 0 1 2.14-3.56 28.12 28.12 0 0 1 3.77-4.4c1.83-1.83 3.04-2.66 5.11-4.2 3.24-2.43 8.72-5.6 8.72-5.6h-8.72s-3.66 1.74-5.92 3.01c-2.57 1.45-4.06 2.23-6.4 4.04-3.11 2.41-4.74 4-7.1 7.15-1.4 1.86-2.23 2.9-3.18 5.03-.8 1.78-1.02 2.88-1.47 4.77-.34 1.41-.57 2.2-.7 3.65a19.03 19.03 0 0 0 .7 7.27c.3 1.13.43 1.8.93 2.85.34.7.59 1.08 1.03 1.73.42.63.63 1.02 1.18 1.55.52.51.74.79 1.33 1.21.67.47 1.16.73 1.9 1.08.74.35 1.43.43 2.37.62 1.9.38 3 .41 4.95.38 1.56-.03 1.65 0 3.74-.38.68-.12 1.9-.62 1.9-.62Z" fill="#F87777"/><path d="M39.9 74.6c-.98 6.77-1.06 10.63-1.5 17.46 0 0-.16 9.9-.73 16.2-.37 4.16-.49 6.51-1.27 10.6a53.5 53.5 0 0 1-2.24 8.92c-.65 1.87-1 2.94-1.9 4.7a23.72 23.72 0 0 1-4.37 6.26c-2.26 2.42-6.68 5.22-6.68 5.22s1.79.06 2.93 0c2.57-.14 4.04-.4 6.5-1.19 2.36-.75 3.74-1.23 5.76-2.65 2.05-1.44 2.96-2.6 4.49-4.58 1.88-2.43 2.62-4.05 3.84-6.87a39.43 39.43 0 0 0 2.42-7.55c.76-3.13.95-4.93 1.35-8.13.4-3.26.5-5.1.7-8.39.17-2.79.3-7.14.3-7.14s3.52-.66 5.76-1.2c4.13-.96 6.38-1.77 10.44-3.01 4.17-1.28 6.57-1.85 10.64-3.44 3.76-1.47 5.75-2.58 9.4-4.28 3.16-1.47 5-2.17 8.06-3.82a76.2 76.2 0 0 0 9.34-5.76c2.7-1.91 6.68-5.22 6.68-5.22s3.88-3.54 6.1-6.05c1.78-2 4.29-5.33 4.29-5.33s3.36-4.3 5.12-7.3c1.29-2.2 2.95-5.82 2.95-5.82s1.22-3.45 1.9-5.69c.47-1.58.81-2.45 1.11-4.07.36-1.9.34-2.99.43-4.91.09-2.03.32-2.87 0-5.2l-.85-5.96s-.43-2.76-1.05-4.42c-.82-2.2-1.8-3.19-2.97-5.23-1.16-2.04-4-4.5-4-4.5s-2.45-2.12-4.29-3.05c-2.46-1.25-4.08-1.49-6.82-1.86-2.8-.38-4.42-.25-7.23 0-2.5.23-3.86.6-6.32 1.1-2.78.56-4.31 1-7.08 1.64 2.77.5 4.49.22 7.08 1.29 2.3.95 5.31 3.48 5.31 3.48l3.48 4.76 2.47 6.04 1.01 4.38s.24 3.7 0 6.06c-.3 2.95-1.74 7.41-1.74 7.41s-1.32 4-2.29 6.5c-1.64 4.24-4.76 10.62-4.76 10.62s-3.34 5.04-5.76 8.05a72.66 72.66 0 0 1-6.3 7.07c-2.3 2.29-6.18 5.54-6.18 5.54l-7.09 5.2-9.33 5.05-10.74 4.28-5.97 1.33s.26-6.5.64-10.67a122.28 122.28 0 0 1 5.6-28.8l.04-.12c2.23-7.08 3.51-11.16 6.97-17.77a88.03 88.03 0 0 1 5.92-9.75c2.12-3.16 3.25-5 5.76-7.87a47.47 47.47 0 0 1 5.45-5.45l.18-.16a33.81 33.81 0 0 1 5.27-4 28 28 0 0 1 4.98-2.47c-2.86.26-4.53 0-7.33.65-2.13.5-3.26 1.01-5.28 1.83-1.62.65-2.53 1-4.06 1.83-2.47 1.32-3.7 2.34-5.9 4.06-2.52 1.97-3.98 3.07-6.09 5.48-1.91 2.19-2.7 3.64-4.26 6.1-2.32 3.65-3.36 5.87-5.28 9.75-4.24 8.5-6.47 13.42-9.14 22.54-2.06 7-2.8 11.06-3.86 18.28Z" fill="#F87777"/><path d="m38.4 92.06-.5-.03v.02h.5Zm1.5-17.46-.49-.07.5.07Zm3.87-18.28-.48-.14.48.14Zm9.14-22.54.44.22-.44-.22Zm5.28-9.75-.43-.27.43.27Zm4.26-6.1.38.33-.38-.33Zm6.1-5.48.3.4-.3-.4Zm5.89-4.06.23.44-.23-.44Zm4.06-1.83-.19-.46.19.46Zm5.28-1.83.11.49-.11-.49Zm2.35 1.83.26.43-.26-.43Zm-5.45 4.15.33.38-.33-.38Zm-5.45 5.45.38.33-.38-.33Zm-5.76 7.87-.42-.28.42.28Zm-5.92 9.75.44.23-.44-.23Zm-7 17.89.47.15-.48-.15ZM52.9 65.68l.49.1-.5-.1Zm-1.97 14.8-.5-.05.5.04Zm-.64 10.66-.5-.02-.02.65.63-.14-.1-.49Zm5.97-1.33.1.49.05-.01.03-.02-.18-.46ZM67 85.53l.18.46h.03l.02-.02-.23-.44Zm9.33-5.06.24.44.03-.01.03-.02-.3-.4Zm7.09-5.19.3.4.02-.01-.32-.39Zm6.18-5.54-.36-.36.36.36Zm6.3-7.07-.4-.3.4.3Zm5.76-8.05.42.28.02-.03.01-.03-.45-.22ZM106.43 44l.47.18-.47-.18Zm2.3-6.5.47.16-.48-.16Zm1.73-7.41.5.05-.5-.05Zm0-6.06.5-.04v-.04l-.01-.04-.49.12Zm-1-4.38.48-.11v-.04l-.02-.04-.47.2Zm-2.48-6.04.46-.19-.02-.06-.03-.05-.4.3Zm-3.48-4.76.4-.3-.03-.05-.05-.03-.32.38Zm-5.3-3.48-.2.46.2-.46Zm0-2.93.1.5-.1-.5Zm6.31-1.1-.05-.5.05.5Zm7.23 0-.06.5.06-.5Zm6.82 1.86-.23.45.23-.45Zm4.3 3.05-.34.38.33-.38Zm6.96 9.73.47-.18-.47.18Zm1.05 4.42.5-.07-.5.07Zm.85 5.96.5-.06-.5.06Zm0 5.2-.5-.02.5.02Zm-.43 4.91-.49-.09.5.1Zm-1.12 4.07.48.15-.48-.15Zm-1.9 5.69.46.2.01-.01v-.03l-.46-.16Zm-2.94 5.82-.43-.25.43.25Zm-5.12 7.3-.4-.3.4.3Zm-4.29 5.34-.37-.34.37.34Zm-6.1 6.04.32.38.02-.01-.34-.37Zm-6.68 5.22.29.4-.3-.4ZM93.8 81.7l.24.45-.24-.45Zm-8.06 3.82-.2-.45.2.45Zm-9.4 4.28.18.47-.18-.47ZM65.7 93.25l-.15-.48.15.48Zm-10.44 3.02.12.49-.12-.5Zm-5.77 1.19-.09-.5-.4.08v.4l.5.02Zm-.3 7.14.5.03-.5-.03Zm-.7 8.4.5.06-.5-.07Zm-1.34 8.12.49.12-.49-.12Zm-2.42 7.55.46.2-.46-.2Zm-3.84 6.87-.4-.3.4.3Zm-4.49 4.58-.28-.41.28.4Zm-5.76 2.65.15.48-.15-.48Zm-6.5 1.2.03.5-.03-.5Zm3.75-5.23.37.34-.37-.34Zm4.38-6.26.44.23-.44-.23Zm1.9-4.7-.48-.17.47.17Zm2.23-8.91-.49-.1.5.1Zm1.27-10.6-.5-.05.5.05Zm-20.12 33.4-.31.4.3-.4Zm-2.93-2.93-.4.3.4-.3Zm-2.1-3.93.47-.16-.48.16Zm-.65-2.84-.5.02v.06l.5-.08Zm0-2.2.5.03-.5-.03Zm.36-3.05-.5-.09.5.09Zm.8-3.5.49.14-.48-.14Zm1.9-4.84.44.22-.45-.22Zm2.14-3.56.41.3-.4-.3Zm3.77-4.4.35.35-.35-.36Zm5.11-4.2.3.4-.3-.4Zm8.72-5.6.25.43 1.6-.93h-1.85v.5Zm-8.72 0v-.5h-.11l-.1.05.21.45Zm-5.92 3.01.25.44-.25-.44Zm-6.4 4.04.3.4-.3-.4Zm-7.1 7.15.4.3-.4-.3Zm-3.18 5.03.46.2-.46-.2Zm-1.47 4.77-.49-.12.49.12Zm-.7 3.65.5.05-.5-.05Zm0 3.7.5-.05-.5.05Zm.7 3.57-.49.13.49-.13Zm.93 2.85.45-.21-.45.21Zm1.03 1.73.41-.28-.41.28Zm1.18 1.55.35-.35-.35.35Zm1.33 1.21-.29.4.3-.4Zm4.27 1.7.1-.49-.1.49Zm4.95.38v.5-.5Zm3.74-.38.09.5-.1-.5Zm37.27-93.03-.48-.15.48.15Zm24.28-41 .33.38-.33-.38ZM38.9 92.1c.44-6.84.52-10.67 1.5-17.42l-.99-.14c-1 6.8-1.07 10.68-1.5 17.5l.99.06Zm1.5-17.42c1.05-7.2 1.8-11.23 3.84-18.2l-.95-.29c-2.06 7.03-2.82 11.12-3.88 18.35l1 .14Zm3.84-18.2c2.66-9.09 4.89-13.98 9.11-22.47l-.9-.45c-4.23 8.52-6.48 13.47-9.16 22.63l.95.28ZM53.35 34c1.93-3.88 2.96-6.07 5.26-9.7l-.85-.54c-2.33 3.68-3.38 5.92-5.3 9.8l.9.44Zm5.26-9.7c1.56-2.48 2.34-3.89 4.22-6.04l-.75-.66c-1.95 2.23-2.77 3.72-4.32 6.16l.85.53Zm4.22-6.04c2.07-2.37 3.5-3.44 6.02-5.42l-.61-.78c-2.52 1.97-4.02 3.1-6.16 5.54l.75.66Zm6.02-5.42c2.2-1.72 3.4-2.72 5.82-4.01l-.47-.88c-2.5 1.34-3.77 2.39-5.96 4.1l.61.8Zm5.82-4.01c1.5-.81 2.4-1.16 4.01-1.8l-.37-.93c-1.61.65-2.55 1.01-4.11 1.85l.47.88Zm4.01-1.8c2.04-.83 3.13-1.33 5.21-1.81l-.22-.98c-2.18.5-3.35 1.04-5.36 1.86l.37.92Zm5.21-1.81c1.36-.32 2.45-.41 3.55-.46 1.1-.05 2.27-.05 3.72-.18l-.09-1c-1.42.13-2.52.13-3.67.18-1.14.05-2.3.15-3.73.48l.22.98Zm7.04-1.6a28.5 28.5 0 0 0-5.06 2.51l.52.86a27.52 27.52 0 0 1 4.9-2.44l-.36-.93Zm-10.58 6.71a47.95 47.95 0 0 0-5.5 5.5l.76.66a47 47 0 0 1 5.4-5.4l-.66-.76Zm-5.5 5.5c-2.53 2.9-3.68 4.77-5.8 7.92l.83.56c2.13-3.17 3.25-4.98 5.73-7.82l-.76-.66Zm-5.8 7.92a88.5 88.5 0 0 0-5.94 9.8l.88.46a87.52 87.52 0 0 1 5.9-9.7l-.84-.56ZM56.06 51.52c-1.7 5.4-2.55 8.5-3.65 14.06l.99.2c1.08-5.53 1.92-8.58 3.62-13.96l-.96-.3Zm-3.65 14.06a122.78 122.78 0 0 0-1.97 14.85l1 .09c.52-5.8.84-9.05 1.96-14.74l-.99-.2Zm-1.97 14.85a199.18 199.18 0 0 0-.62 10.4l-.01.22V91.12l.5.02.5.02V90.88a317.52 317.52 0 0 1 .62-10.36l-1-.09Zm-.03 11.2 5.97-1.33-.22-.98-5.97 1.34.22.97Zm6.04-1.35 10.74-4.29-.37-.93-10.74 4.29.37.93Zm10.8-4.31 9.33-5.06-.48-.87-9.33 5.05.47.88Zm9.39-5.1 7.09-5.18-.6-.81-7.08 5.2.59.8Zm6.79-5.59.32.39.01-.01.04-.03a107.5 107.5 0 0 0 2.19-1.89 91.4 91.4 0 0 0 3.97-3.65l-.7-.7a90.3 90.3 0 0 1-5.51 4.97 129.6 129.6 0 0 1-.6.5l-.03.03a.29.29 0 0 1-.01 0v.01l.32.38Zm6.53-5.19A73.14 73.14 0 0 0 96.3 63l-.78-.63a72.14 72.14 0 0 1-6.27 7.02l.7.71ZM96.3 63a103.2 103.2 0 0 0 3.8-5.19 204.69 204.69 0 0 0 1.95-2.85l.03-.04v-.01l-.4-.28-.42-.28-.01.02-.03.04-.11.16a234.07 234.07 0 0 1-1.82 2.67 102.3 102.3 0 0 1-3.77 5.13l.78.63Zm5.37-8.37.45.22.01-.02a6.27 6.27 0 0 1 .13-.27l.38-.78 1.25-2.66c.99-2.13 2.18-4.8 3-6.93l-.92-.36c-.82 2.1-2 4.75-2.99 6.87a257.98 257.98 0 0 1-1.62 3.43l-.1.2-.03.06v.01l.44.23Zm5.23-10.44a128.07 128.07 0 0 0 2.07-5.86l.17-.48.04-.14.01-.03v-.01l-.47-.16-.47-.16v.02l-.02.03-.04.13-.16.48a214.05 214.05 0 0 1-2.06 5.82l.93.36Zm1.82-6.68.48.15v-.01l.01-.04.05-.15a57.95 57.95 0 0 0 .7-2.42c.4-1.49.84-3.37 1-4.9l-1-.1a33.13 33.13 0 0 1-.97 4.74 61.73 61.73 0 0 1-.74 2.57l.47.16Zm2.24-7.36c.12-1.21.12-2.75.1-3.98a68.8 68.8 0 0 0-.07-1.54l-.02-.46v-.12l-.01-.03V24l-.5.03-.5.03v.04l.01.12.03.45c.01.38.04.91.05 1.52.03 1.21.03 2.7-.09 3.85l1 .1Zm-.01-6.23-1-4.37-.98.22 1 4.38.98-.23Zm-1.03-4.45-2.48-6.04-.92.38 2.47 6.04.93-.38Zm-2.53-6.15-3.48-4.76-.81.6 3.48 4.75.8-.59Zm-3.89-4.46.32-.38v-.01l-.03-.02-.1-.09A29.3 29.3 0 0 0 102 7.06a19.66 19.66 0 0 0-3.61-2.15l-.39.92c1.1.45 2.38 1.3 3.42 2.04a37.55 37.55 0 0 1 1.63 1.26l.1.08.02.02h.01l.32-.38ZM98.4 4.9a12.6 12.6 0 0 0-3.62-.9c-1.13-.12-2.2-.17-3.57-.42l-.17.99c1.4.25 2.57.31 3.63.43 1.07.12 2.1.3 3.34.82l.39-.92Zm-7.16-.34c2.79-.65 4.29-1.08 7.06-1.64l-.2-.98c-2.78.56-4.35 1.01-7.09 1.65l.23.97Zm7.06-1.64c2.48-.5 3.8-.86 6.27-1.09l-.1-1c-2.52.24-3.93.62-6.36 1.11l.2.98Zm6.27-1.09c2.8-.26 4.37-.37 7.11 0l.14-1a28 28 0 0 0-7.34 0l.09 1Zm7.11 0c2.73.37 4.28.6 6.66 1.8l.46-.89c-2.55-1.28-4.24-1.53-6.98-1.9l-.14.99Zm6.66 1.8c.88.45 1.92 1.19 2.76 1.83a38.4 38.4 0 0 1 1.33 1.07l.08.07.02.01v.01l.33-.38.33-.38h-.01l-.02-.02-.09-.07a32.33 32.33 0 0 0-1.36-1.1 20.34 20.34 0 0 0-2.91-1.93l-.46.9Zm4.52 2.61-.33.38h.01l.02.03a42.62 42.62 0 0 1 1.51 1.43c.85.86 1.81 1.94 2.36 2.9l.87-.49a16.7 16.7 0 0 0-2.52-3.12 32.48 32.48 0 0 0-1.56-1.48l-.02-.02h-.01l-.33.37Zm3.57 4.75c.59 1.03 1.14 1.82 1.62 2.57.49.76.92 1.53 1.31 2.58l.94-.35c-.42-1.14-.9-1.97-1.4-2.77-.51-.8-1.03-1.52-1.6-2.53l-.87.5Zm2.93 5.15c.3.8.55 1.87.74 2.76a36.34 36.34 0 0 1 .28 1.54v.02h.01l.5-.07.49-.08v-.03l-.02-.1-.06-.33a41.3 41.3 0 0 0-.22-1.15c-.19-.9-.46-2.04-.78-2.9l-.94.34Zm1.52 4.25-.5.07.01.01v.03l.02.12.06.44.22 1.5.54 3.86 1-.13-.55-3.86-.22-1.5-.06-.45-.02-.12v-.04l-.5.07Zm.35 6.03c.32 2.27.09 3.02 0 5.1l1 .05c.08-1.97.33-2.9 0-5.28l-1 .13Zm0 5.1c-.09 1.95-.07 3-.42 4.85l.99.18c.36-1.93.34-3.07.43-4.98l-1-.04Zm-.42 4.85c-.3 1.59-.63 2.4-1.1 4.02l.95.29c.46-1.55.83-2.47 1.14-4.13l-.99-.18Zm-1.1 4.02a109.24 109.24 0 0 1-1.84 5.5l-.04.12-.01.03.47.18.47.16.01-.04.04-.1.15-.43a208.67 208.67 0 0 0 1.7-5.13l-.96-.3Zm-1.42 5.83-.46-.21-.02.04c0 .03-.03.07-.05.12l-.2.43-.71 1.48a60.32 60.32 0 0 1-1.94 3.71l.86.5a61.74 61.74 0 0 0 2.69-5.26l.2-.44.06-.12c0-.02.01-.03.02-.03v-.01l-.45-.21Zm-3.38 5.57a60.55 60.55 0 0 1-3.2 4.73 109.97 109.97 0 0 1-1.74 2.32l-.11.14-.03.04v.01l.39.31.39.3c0 .01 0 0 0 0l.04-.04.1-.14a88.92 88.92 0 0 0 1.77-2.35 61.9 61.9 0 0 0 3.25-4.82l-.86-.5Zm-4.7 7.55-.4-.3v.01l-.02.03-.08.1-.31.41-1.05 1.36a76.58 76.58 0 0 1-2.79 3.4l.75.66a76.5 76.5 0 0 0 3.88-4.81l.31-.41.09-.11.02-.03-.4-.3Zm-4.65 5a76.63 76.63 0 0 1-3.86 3.94 146 146 0 0 1-1.57 1.48l-.47.44-.12.11-.04.03v.01l.33.37.34.37v-.01c.02 0 .03-.02.04-.03l.13-.12a121.22 121.22 0 0 0 5.97-5.92l-.75-.67Zm-5.73 6.38-.32-.38h-.01l-.03.03-.13.11-.5.4a100.3 100.3 0 0 1-5.99 4.65l.59.82a101.6 101.6 0 0 0 6.04-4.7l.5-.4.12-.1.04-.04-.31-.39Zm-6.97 4.8a75.78 75.78 0 0 1-9.29 5.74l.48.89a76.74 76.74 0 0 0 9.39-5.8l-.58-.82Zm-9.29 5.74c-3.05 1.64-4.84 2.33-8.03 3.8l.43.91c3.13-1.45 5-2.17 8.08-3.82l-.48-.89Zm-8.03 3.8c-3.68 1.72-5.63 2.82-9.37 4.27l.36.94c3.78-1.48 5.8-2.6 9.44-4.3l-.43-.9Zm-9.37 4.27c-4.05 1.58-6.41 2.15-10.6 3.43l.28.96c4.16-1.27 6.59-1.86 10.68-3.45l-.36-.94Zm-10.6 3.43c-4.08 1.25-6.3 2.05-10.41 3.01l.23.98c4.15-.98 6.42-1.8 10.46-3.03l-.29-.96Zm-10.41 3.01a121.04 121.04 0 0 1-5.6 1.16l-.1.02h-.04l.08.5.1.5v-.01h.04a32.44 32.44 0 0 0 .55-.11 228.76 228.76 0 0 0 5.2-1.08l-.23-.98Zm-5.66 1.68-.5-.02v.2a314.61 314.61 0 0 1-.3 6.93l1 .06a213.3 213.3 0 0 0 .3-6.96v-.19l-.5-.02Zm-.8 7.11c-.2 3.29-.28 5.12-.69 8.36l1 .13c.4-3.29.5-5.15.7-8.43l-1-.06Zm-.69 8.36c-.4 3.2-.58 4.98-1.33 8.07l.97.24c.77-3.16.96-5 1.35-8.18l-.99-.13ZM46.67 121c-.73 3-1.17 4.67-2.4 7.47l.92.4a39.93 39.93 0 0 0 2.45-7.63l-.97-.24Zm-2.4 7.47c-1.22 2.81-1.94 4.38-3.78 6.77l.8.6c1.91-2.48 2.67-4.14 3.9-6.97l-.91-.4Zm-3.78 6.77c-1.52 1.97-2.39 3.07-4.37 4.47l.57.82c2.11-1.49 3.06-2.7 4.6-4.69l-.8-.6Zm-4.37 4.47c-1.97 1.38-3.29 1.84-5.63 2.58l.3.96c2.37-.76 3.81-1.25 5.9-2.72l-.57-.82Zm-5.63 2.58a21.96 21.96 0 0 1-6.38 1.17l.06 1c2.61-.15 4.12-.42 6.62-1.21l-.3-.96Zm-6.38 1.17a29.2 29.2 0 0 1-2.59.01H21.23l-.02.5-.02.5h.08a14 14 0 0 0 .97.02c.59 0 1.34 0 1.93-.03l-.06-1Zm-2.9.5.27.42h.01l.04-.03a39.79 39.79 0 0 1 .68-.45c.46-.3 1.09-.73 1.79-1.23 1.39-1.01 3.1-2.34 4.26-3.58l-.73-.69a30.28 30.28 0 0 1-4.12 3.45 60.5 60.5 0 0 1-2.28 1.57l-.14.09-.04.02.26.43Zm7.05-4.88a24.2 24.2 0 0 0 4.45-6.37l-.89-.46c-1.34 2.62-2.3 4-4.3 6.15l.74.69Zm4.45-6.37c.92-1.8 1.27-2.9 1.92-4.77l-.94-.33c-.65 1.88-.98 2.92-1.87 4.64l.9.46Zm1.92-4.77c1.2-3.42 1.6-5.45 2.27-8.98l-.99-.19a52.97 52.97 0 0 1-2.22 8.84l.94.33Zm2.27-8.98c.78-4.13.9-6.5 1.27-10.65l-1-.09c-.37 4.17-.49 6.49-1.26 10.55l.99.19Zm1.27-10.65c.28-3.17.47-7.23.58-10.5a389.3 389.3 0 0 0 .14-5.3v-.33l.01-.08v-.03l-.5-.01h-.5v.02a30 30 0 0 1 0 .4 339.82 339.82 0 0 1-.15 5.3c-.11 3.26-.3 7.3-.58 10.44l1 .1ZM21.2 143.96l.23-.44-.02-.01-.08-.04a38.21 38.21 0 0 1-1.21-.69c-.75-.44-1.64-1-2.27-1.5l-.62.78c.68.55 1.62 1.14 2.38 1.58.38.23.72.42.96.55l.29.16.08.04.02.01.24-.44Zm-3.35-2.68c-1.25-1-1.9-1.59-2.84-2.84l-.8.6c1 1.34 1.73 2 3.02 3.02l.62-.78Zm-2.84-2.84a11.73 11.73 0 0 1-2.03-3.8l-.95.33c.58 1.7 1.1 2.64 2.18 4.07l.8-.6Zm-2.03-3.8a15.09 15.09 0 0 1-.61-2.67l-.01-.06v-.01l-.5.07-.5.08.01.02.01.06a18.61 18.61 0 0 0 .17.95c.12.58.29 1.32.48 1.89l.95-.32Zm-1.12-2.67.5-.02v-.01a11.76 11.76 0 0 1-.01-.75l.01-1.4-1-.04a26.16 26.16 0 0 0 0 2.22v.01l.5-.01Zm.5-2.17c.06-1.18.15-1.83.35-3l-.98-.17c-.2 1.2-.3 1.89-.37 3.12l1 .05Zm.35-3c.23-1.36.4-2.11.8-3.44l-.96-.28c-.4 1.36-.59 2.15-.82 3.55l.98.17Zm.8-3.44a24 24 0 0 1 1.85-4.76l-.9-.45a24.97 24.97 0 0 0-1.91 4.93l.96.28Zm1.85-4.76c.72-1.42 1.2-2.18 2.11-3.49l-.82-.57a25.08 25.08 0 0 0-2.19 3.61l.9.45Zm2.11-3.49a27.61 27.61 0 0 1 3.71-4.34l-.7-.71a28.56 28.56 0 0 0-3.83 4.48l.82.57Zm3.71-4.34c1.8-1.8 2.98-2.6 5.06-4.16l-.6-.8c-2.06 1.54-3.3 2.4-5.16 4.25l.7.7Zm5.06-4.16c1.6-1.2 3.77-2.58 5.54-3.68a154.78 154.78 0 0 1 2.89-1.74l.18-.1.04-.03h.02l-.25-.44-.25-.43h-.02l-.05.03-.18.1a146.32 146.32 0 0 0-2.9 1.76 82.72 82.72 0 0 0-5.62 3.73l.6.8Zm8.42-6.5h-8.72v1h8.72v-1Zm-8.72.5-.21-.44h-.01l-.04.02-.12.05-.44.22a150.62 150.62 0 0 0-5.34 2.74l.49.87a87.81 87.81 0 0 1 5.28-2.71l.45-.21.12-.06.03-.02-.2-.45Zm-6.16 2.59c-2.57 1.44-4.1 2.23-6.47 4.07l.62.8c2.3-1.8 3.76-2.55 6.34-4l-.5-.87Zm-6.47 4.07a33.04 33.04 0 0 0-7.2 7.25l.8.6a32.05 32.05 0 0 1 7.02-7.06l-.62-.79Zm-7.2 7.25c-1.38 1.86-2.25 2.95-3.23 5.13l.92.4c.92-2.06 1.72-3.07 3.12-4.93l-.8-.6Zm-3.23 5.13c-.81 1.82-1.04 2.97-1.5 4.85l.97.24c.46-1.9.67-2.95 1.45-4.69l-.92-.4Zm-1.5 4.85c-.34 1.4-.57 2.24-.71 3.72l1 .1c.13-1.4.34-2.16.68-3.58l-.97-.24Zm-.71 3.72a16.96 16.96 0 0 0 0 3.8l1-.1c-.15-1.4-.14-2.2 0-3.6l-1-.1Zm0 3.8c.14 1.45.34 2.27.71 3.65l.97-.26a18.56 18.56 0 0 1-.69-3.49l-1 .1Zm.71 3.65c.3 1.1.44 1.83.97 2.94l.9-.43c-.48-1-.6-1.61-.9-2.77l-.97.26Zm.97 2.94c.36.74.62 1.13 1.06 1.79l.83-.56a11.3 11.3 0 0 1-.99-1.66l-.9.43Zm1.06 1.79c.4.6.66 1.05 1.25 1.63l.7-.72c-.5-.48-.67-.81-1.12-1.47l-.83.56Zm1.25 1.63c.5.48.76.8 1.4 1.26l.57-.82c-.55-.39-.72-.62-1.27-1.16l-.7.72Zm1.4 1.26c.7.5 1.21.77 1.96 1.12l.43-.9c-.72-.34-1.19-.59-1.82-1.04l-.58.82Zm1.96 1.12c.81.39 1.6.48 2.49.66l.2-.98c-.99-.2-1.6-.26-2.26-.58l-.43.9Zm2.49.66c1.95.39 3.1.42 5.06.39l-.02-1c-1.92.03-3 0-4.85-.37l-.2.98Zm5.06.39c.76-.02 1.2-.02 1.7-.06.5-.05 1.07-.14 2.12-.33l-.18-.98c-1.05.19-1.57.27-2.03.31-.45.04-.84.04-1.63.06l.02 1Zm3.82-.39a9.1 9.1 0 0 0 1.79-.56l.15-.06.04-.02h.01l-.18-.47-.19-.46H21l-.04.02-.14.05-.48.18c-.4.14-.84.28-1.13.34l.18.98ZM132.2 26.3l-.84-5.97-1 .14.85 5.96 1-.13Zm-75.2 25.52.04-.12-.95-.3-.04.12.96.3Zm.04-.12C59.3 44.62 60.55 40.58 64 34l-.88-.45c-3.48 6.65-4.78 10.76-7 17.85l.94.3ZM81.01 11.1l.18-.16-.66-.76-.18.16.66.76Zm.18-.16a33.34 33.34 0 0 1 5.2-3.94l-.52-.86c-2.26 1.37-3.42 2.39-5.34 4.04l.66.76Zm-.66-.76-.18.16.66.76.18-.16-.66-.76ZM56.1 51.4l-.04.12.96.3.03-.12-.95-.3Z" fill="#F87777"/></svg>