<svg width="520" height="1010" fill="none" xmlns="http://www.w3.org/2000/svg"><path d="M421.18 1.65s45.46 16.04 71.53 80.17c8.69 21.36 10.54 38.53 0 59.04-13.35 25.99-43.16 32.26-71.53 39.26-48.76 12.02-88.14 8.5-134.15-11.64-24.07-10.54-35.48-15.52-45.24-38.25-5.72-13.3-2.69-23.84 3.66-36.77 7.88-16.05 20.77-24.01 32.37-27.8 41.9-13.7 85.06 3.99 118.42 32.41 28.83 24.58 21.32 18.3 38.66 42.79C471.27 192.24 505.01 286 505.01 286s18.13 60.45 0 91.03c-12.55 21.16-25.77 31.83-49.2 39.36-20.12 6.46-32.98 9.75-54.12 9.75-30.74 0-45.38 0-83.19-6.19-31.81-5.2-54.42-10.43-70.38-22.48-15.53-11.72-21.78-33.9-21.78-43.07 0-7.11-.21-14.85 17.22-25.69 12.05-7.5 33.91-9.77 50.5-9.77 17.73 0 42.76 7.73 50.22 12 7.46 4.29 15.57 8.87 32.71 21.63 20.05 14.92 20.06 15.47 31.13 30.23s24.71 26.24 47.7 63.11c20.92 33.58 38.36 50.5 49.2 88.56 13.01 45.74 20.15 78.7 0 121.78-12.57 26.85-26.64 37.4-55.72 43.14-28.8 5.7-58.06 2.93-77.68 0-13.08-1.95-52.1-10.17-76.58-17.44-39.02-11.6-53.44-21.19-62-41.52-7.63-18.16-2.45-27.97 3.1-36 15.73-22.83 57.8-24.94 84.4-17.5 34.54 9.67 70.47 39.42 90.51 75.79 14.34 26.03 14.35 54.1 4.17 82.09-12.1 33.25-71.62 108.44-102.2 126.22-32.22 18.72-48.42 20.69-79.1 14.65-30.68-6.03-45.1-38.72-38.83-61.96 4.46-16.58 13.77-23.12 31.45-32.3 24.15-12.54 53.74-3.97 75.8 11.96 39.86 28.75 48.82 74.55 23.46 97.17-25.36 22.62-36.33 29.04-86.27 45.24-60.48 19.61-120.41 20.3-184.23 16.52" stroke="#CFCFCF" stroke-width="3" stroke-linecap="round" stroke-dasharray="20 20"/><path d="M5.74 959.22s-7.3 3.78-1.44 8.09c2.39 1.81 11.5 7.28 20.97 13.63l28.53 18.28s3.97 2.93 7.14.61c3.16-2.3 4.08-9.16 4.14-10.52.08-1.06 2.85-18.75 2.84-25.84.02-1.97-.78-4.94-5.27-4.35l-30.77 2.68c-3.61.23-9.78-1.8 2.69-5l34.9-8.98s3.84-1.15 6.62-7.2l5.93-13.21s.97-5.95-7.2-1.51c-21.58 9.35-46.56 22.24-69.08 33.32Z" fill="#CFCFCF"/><circle cx="239.05" cy="117.05" r="15.19" fill="#FDA9A9"/><circle cx="239.05" cy="117.06" r="9.8" fill="#fff"/><circle cx="232.48" cy="618.62" r="15.19" fill="#FDA9A9"/><circle cx="232.48" cy="618.62" r="9.8" fill="#fff"/><circle cx="227.58" cy="356.24" r="15.19" fill="#FDA9A9"/><circle cx="227.58" cy="356.24" r="9.8" fill="#fff"/></svg>