<svg width="370" height="766" fill="none" xmlns="http://www.w3.org/2000/svg"><path d="m178.72 167.55-.01 1.5v-1.5Zm125.59 202 .77 1.28-.77-1.28ZM32.44 493.43l1.43.43-1.43-.43Zm271.87 133.2-1.4-.54 1.4.54ZM245.74 526.3l-.43 1.44.43-1.44Zm-97.44 87.56-1.47.29 1.47-.3ZM58.41 4.97A1.5 1.5 0 0 0 60.2 7.4l-1.78-2.42ZM46.54 20.34a1.5 1.5 0 0 0-2.26-1.97l2.26 1.97Zm-13.9 13.42a1.5 1.5 0 1 0 2.5 1.65l-2.5-1.65Zm-6.7 18.15a1.5 1.5 0 1 0-2.72-1.27l2.72 1.27ZM16.6 68.85a1.5 1.5 0 1 0 2.9.75l-2.9-.75Zm.34 19.28a1.5 1.5 0 0 0-3-.03l3 .03Zm-.13 19.27a1.5 1.5 0 0 0 2.85-.93l-2.85.92Zm11.5 15.44a1.5 1.5 0 1 0-2.39 1.82l2.39-1.82Zm11.51 15.4a1.5 1.5 0 1 0 1.8-2.4l-1.8 2.4Zm17.95 7.32a1.5 1.5 0 1 0-1.3 2.7l1.3-2.7Zm16.46 9.86a1.5 1.5 0 0 0 .94-2.85l-.94 2.85Zm19.22 2.23a1.5 1.5 0 1 0-.67 2.93l.67-2.93Zm18.24 6.56a1.5 1.5 0 1 0 .47-2.97l-.47 2.97Zm19.34-.54a1.5 1.5 0 0 0-.3 2.98l.3-2.98Zm18.75 4.49a1.5 1.5 0 0 0 .18-3l-.18 3Zm19.15-2.25a1.5 1.5 0 0 0-.06 3l.06-3Zm19.42 3.3a1.5 1.5 0 1 0 .08-3l-.08 3Zm19.03-2.1a1.5 1.5 0 1 0-.2 2.99l.2-3Zm18.55 4.78a1.5 1.5 0 1 0 .36-2.98l-.36 2.98Zm19.17-.1a1.5 1.5 0 1 0-.54 2.95l.54-2.95Zm17.8 7.06a1.5 1.5 0 0 0 .78-2.9l-.77 2.9Zm18.89 2.8a1.5 1.5 0 0 0-1.04 2.81l1.04-2.81Zm16.2 10.3a1.5 1.5 0 0 0 1.35-2.68l-1.36 2.67Zm17.7 7.17a1.5 1.5 0 0 0-1.73 2.44l1.74-2.44Zm12.47 14.56a1.5 1.5 0 0 0 2.15-2.1l-2.15 2.1Zm14.04 13a1.5 1.5 0 0 0-2.55 1.59l2.55-1.6Zm5.48 18.3a1.5 1.5 0 1 0 2.84-.98l-2.84.99Zm7.15 17.74a1.5 1.5 0 1 0-2.97.36l2.97-.36Zm-2.55 18.98a1.5 1.5 0 1 0 3 .21l-3-.21Zm-.01 19.15a1.5 1.5 0 0 0-2.91-.71l2.91.71Zm-8.74 17.06a1.5 1.5 0 0 0 2.78 1.15l-2.78-1.15Zm-5.81 18.26a1.5 1.5 0 0 0-2.58-1.54l2.58 1.54Zm-13.36 13.7a1.5 1.5 0 1 0 2.3 1.93l-2.3-1.93Zm-11.39 15.45a1.5 1.5 0 0 0-1.87-2.34l1.87 2.34Zm-18.13 7.6a1.5 1.5 0 0 0 1.3 2.71l-1.3-2.7Zm-17.6 9.93a1.5 1.5 0 1 0-.87-2.87l.86 2.87Zm-20.19 1.73a1.5 1.5 0 0 0 .56 2.95l-.56-2.95Zm-19.36 5.9a1.5 1.5 0 0 0-.35-2.98l.35 2.98Zm-20.24-1.07a1.5 1.5 0 1 0 .24 2.99l-.24-3Zm-19.75 4.44a1.5 1.5 0 1 0-.21-3l.2 3Zm-20.21-1.49a1.5 1.5 0 0 0 .25 3l-.25-3Zm-19.62 5.03a1.5 1.5 0 0 0-.37-2.98l.37 2.98Zm-20.26.14a1.5 1.5 0 0 0 .57 2.94l-.57-2.94Zm-18.73 7.65a1.5 1.5 0 1 0-.87-2.88l.87 2.88Zm-19.81 4.18a1.5 1.5 0 1 0 1.24 2.73l-1.24-2.73ZM83.05 421.7a1.5 1.5 0 0 0-1.68-2.49l1.68 2.5Zm-17.39 10.34a1.5 1.5 0 1 0 2.1 2.14l-2.1-2.14Zm-10.7 17.16a1.5 1.5 0 1 0-2.43-1.75l2.44 1.75Zm-12.83 15.56a1.5 1.5 0 0 0 2.67 1.35l-2.67-1.36ZM37 484.33a1.5 1.5 0 1 0-2.82-1.01l2.82 1.01Zm-8.34 18.35a1.5 1.5 0 1 0 2.95.53l-2.95-.53Zm1.76 19.62a1.5 1.5 0 0 0-3 .16l3-.16Zm.24 19.7a1.5 1.5 0 1 0 2.9-.8l-2.9.8Zm9.75 17.16a1.5 1.5 0 0 0-2.7 1.31l2.7-1.3Zm7.26 18.33a1.5 1.5 0 0 0 2.47-1.7l-2.47 1.7Zm14.42 13.55a1.5 1.5 0 1 0-2.25 1.98l2.25-1.98Zm11.5 16.01a1.5 1.5 0 1 0 2.04-2.2l-2.04 2.2Zm16.87 10.31a1.5 1.5 0 0 0-1.83 2.38l1.83-2.38Zm14.19 13.74a1.5 1.5 0 1 0 1.64-2.51l-1.64 2.51Zm18.28 7.49a1.5 1.5 0 0 0-1.44 2.62l1.44-2.63Zm16.09 11.47a1.5 1.5 0 1 0 1.25-2.72l-1.25 2.72Zm19.19 4.75a1.5 1.5 0 1 0-1.05 2.8l1.05-2.8Zm17.58 8.95a1.5 1.5 0 0 0 .83-2.88l-.83 2.88Zm19.72 1.65a1.5 1.5 0 0 0-.57 2.95l.57-2.95Zm18.88 5.69a1.5 1.5 0 1 0 .25-2.99l-.25 2.99Zm19.62-2.52a1.5 1.5 0 1 0 .13 3l-.13-3Zm19.73.55a1.5 1.5 0 1 0-.64-2.93l.64 2.93Zm17.5-9a1.5 1.5 0 0 0 1.29 2.71l-1.29-2.7Zm17.85-8.3a1.5 1.5 0 0 0-2.02-2.21l2.02 2.21Zm9.76-17.08a1.5 1.5 0 1 0 2.62 1.47l-2.62-1.47Zm10.1-18.33a1.5 1.5 0 1 0-2.93-.66l2.93.66Zm-1.38-22.08a1.5 1.5 0 1 0 2.99-.25l-3 .25Zm-2.32-22a1.5 1.5 0 1 0-2.77 1.16l2.77-1.17Zm-14.15-17.02a1.5 1.5 0 1 0 2.27-1.96l-2.27 1.96Zm-14.57-16.65a1.5 1.5 0 0 0-1.66 2.5l1.66-2.5Zm-20.94-7.42a1.5 1.5 0 1 0 1.1-2.8l-1.1 2.8Zm-19.59-9.06a1.5 1.5 0 0 0-.66 2.92l.66-2.92Zm-20.85.07a1.5 1.5 0 0 0 .13-3l-.13 3Zm-20.86-1.38a1.5 1.5 0 0 0 .65 2.93l-.65-2.94Zm-17.92 10.51a1.5 1.5 0 0 0-1.62-2.52l1.62 2.52Zm-16.91 12.07a1.5 1.5 0 1 0 2.43 1.76l-2.43-1.76Zm-6.73 19.75a1.5 1.5 0 1 0-2.84-.97l2.84.97Zm-7.27 19.56a1.5 1.5 0 1 0 2.99.31l-2.99-.3Zm2.87 20.7a1.5 1.5 0 1 0-2.99.28l2.99-.28Zm.69 20.44a1.5 1.5 0 1 0 2.9-.74l-2.9.75Zm8.9 17.97a1.5 1.5 0 0 0-2.8 1.1l2.8-1.1Zm5.73 19.21a1.5 1.5 0 0 0 2.63-1.46l-2.63 1.46Zm13.36 14.95a1.5 1.5 0 1 0-2.4 1.82l2.4-1.82Zm10.82 16.87a1.5 1.5 0 1 0 2.11-2.13l-2.11 2.13Zm16.92 10.75a1.5 1.5 0 0 0-1.82 2.39l1.82-2.39Zm14.75 13.58a1.5 1.5 0 0 0 1.54-2.58l-1.54 2.58Zm18.92 6.68a1.5 1.5 0 0 0-1.28 2.7l1.28-2.7Zm17.07 10.52a1.5 1.5 0 0 0 1.07-2.8l-1.07 2.8Zm19.73 3.7a1.5 1.5 0 1 0-.92 2.85l.92-2.86ZM67.34.33c-2.52.52-5.6 2.2-8.93 4.63L60.2 7.4c3.22-2.36 5.88-3.73 7.76-4.12l-.6-2.93ZM44.28 18.37c-3.94 4.51-7.92 9.7-11.64 15.4l2.5 1.64a136.79 136.79 0 0 1 11.4-15.07l-2.26-1.97ZM23.22 50.64c-2.71 5.84-5 11.96-6.62 18.2l2.9.76c1.58-6.05 3.8-12 6.44-17.7l-2.72-1.26ZM13.94 88.1c-.05 6.5.82 12.98 2.87 19.3l2.85-.93a57.73 57.73 0 0 1-2.72-18.34l-3-.03Zm11.98 36.56a71.04 71.04 0 0 0 13.9 13.58l1.8-2.4a68.07 68.07 0 0 1-13.31-13l-2.39 1.82Zm30.54 23.6a146.36 146.36 0 0 0 17.77 7.16l.94-2.85a143.42 143.42 0 0 1-17.4-7l-1.3 2.7Zm36.32 12.32c5.9 1.36 12.2 2.57 18.91 3.63l.47-2.97a270.57 270.57 0 0 1-18.7-3.59l-.68 2.93Zm37.95 6.07c6.06.62 12.4 1.12 19.06 1.5l.17-2.99c-6.6-.38-12.91-.88-18.93-1.5l-.3 2.99Zm38.14 2.26c3.21.07 6.5.12 9.84.14l.02-3c-3.33-.02-6.6-.06-9.8-.14l-.06 3Zm9.84.14c3.27.02 6.48.07 9.64.16l.08-3c-3.18-.09-6.42-.14-9.7-.16l-.02 3Zm28.46 1.05c6.52.46 12.77 1.06 18.76 1.79l.36-2.98a367.37 367.37 0 0 0-18.9-1.8l-.22 2.99Zm37.39 4.64c6.45 1.2 12.56 2.57 18.35 4.11l.77-2.9a251.65 251.65 0 0 0-18.58-4.16l-.54 2.95Zm36.2 9.72c6.2 2.29 11.94 4.8 17.22 7.48l1.36-2.67c-5.4-2.75-11.24-5.3-17.55-7.62l-1.04 2.81Zm33.2 17.1a102.57 102.57 0 0 1 14.2 12.12l2.15-2.1a105.69 105.69 0 0 0-14.61-12.46l-1.74 2.44Zm25.7 26.7c3.38 5.4 6.03 11 8.02 16.73l2.84-1a85.78 85.78 0 0 0-8.32-17.32l-2.55 1.6Zm12.2 34.82c.75 6.19.86 12.43.42 18.62l3 .21c.45-6.37.33-12.8-.44-19.19l-2.98.36Zm-2.5 37.06a123.25 123.25 0 0 1-5.83 17.77l2.78 1.15a126.35 126.35 0 0 0 5.96-18.21l-2.91-.71Zm-14.22 34.5c-3.29 5.5-6.92 10.62-10.78 15.23l2.3 1.93a121.5 121.5 0 0 0 11.06-15.63l-2.58-1.54Zm-24.04 28.34c-2.5 2-5.03 3.76-7.56 5.28l1.54 2.57c2.66-1.6 5.3-3.44 7.9-5.5l-1.88-2.35Zm-7.56 5.28a104.46 104.46 0 0 1-8.7 4.67l1.3 2.7a107.4 107.4 0 0 0 8.94-4.8l-1.54-2.57Zm-27.17 11.72a185.34 185.34 0 0 1-19.31 4.6l.55 2.95a188 188 0 0 0 19.62-4.68l-.86-2.87Zm-39.03 7.52a549.6 549.6 0 0 1-19.89 1.9l.24 3a552.6 552.6 0 0 0 20-1.92l-.35-2.98Zm-39.85 3.36c-6.66.46-13.34.94-20 1.5l.25 3c6.63-.57 13.3-1.04 19.95-1.5l-.2-3Zm-40 3.55c-6.7.84-13.34 1.85-19.88 3.12l.57 2.94a294.18 294.18 0 0 1 19.69-3.08l-.37-2.98Zm-39.48 7.9a149.43 149.43 0 0 0-18.94 7.05l1.24 2.73c5.98-2.72 12.19-5 18.57-6.91l-.87-2.88Zm-36.64 16.9a110.95 110.95 0 0 0-15.7 12.83l2.1 2.14c4.8-4.73 9.92-8.86 15.28-12.48l-1.68-2.49Zm-28.84 28.25a133.25 133.25 0 0 0-10.4 17.3l2.67 1.35a130.3 130.3 0 0 1 10.17-16.91l-2.44-1.75Zm-18.34 35.87A195.52 195.52 0 0 0 31 493l2.87.86c1-3.28 2.04-6.46 3.14-9.52l-2.82-1.01ZM31 493a87.43 87.43 0 0 0-2.33 9.69l2.95.53c.56-3.11 1.31-6.23 2.25-9.36L31 493Zm-3.56 29.47A91.73 91.73 0 0 0 30.67 542l2.9-.8a88.74 88.74 0 0 1-3.14-18.9l-3 .17Zm10.28 38.01c2.82 5.8 6.16 11.49 9.96 17.02l2.47-1.7a129.67 129.67 0 0 1-9.73-16.63l-2.7 1.31Zm22.13 32.55c4.27 4.84 8.87 9.52 13.75 14.03l2.04-2.2a190.36 190.36 0 0 1-13.54-13.81l-2.25 1.98Zm28.8 26.72c5.13 3.97 10.49 7.76 16 11.36l1.65-2.51a244.71 244.71 0 0 1-15.83-11.23l-1.83 2.38Zm32.85 21.47c5.74 3.17 11.6 6.12 17.53 8.85l1.25-2.72a268.11 268.11 0 0 1-17.34-8.75l-1.44 2.62Zm35.67 16.4c6.2 2.32 12.42 4.38 18.63 6.15l.83-2.88a246.7 246.7 0 0 1-18.41-6.07l-1.05 2.8Zm37.78 10.75a189.37 189.37 0 0 0 19.45 2.74l.25-2.99a186.8 186.8 0 0 1-19.13-2.7l-.57 2.95Zm39.2 3.22c6.8-.3 13.37-1.1 19.6-2.45l-.64-2.93a113.45 113.45 0 0 1-19.1 2.38l.14 3Zm38.39-8.74a67.22 67.22 0 0 0 16.56-11l-2.02-2.22a64.23 64.23 0 0 1-15.83 10.51l1.29 2.71Zm28.94-26.62c1.59-2.84 3-5.86 4.23-9.06l-2.8-1.08a65.48 65.48 0 0 1-4.05 8.67l2.62 1.47Zm4.23-9.06a77.8 77.8 0 0 0 3.25-10.74l-2.93-.66a74.8 74.8 0 0 1-3.12 10.32l2.8 1.08Zm4.86-33.06a70.22 70.22 0 0 0-5.31-21.77l-2.77 1.17a67.21 67.21 0 0 1 5.09 20.84l2.99-.25Zm-17.19-40.74a82.64 82.64 0 0 0-16.84-14.7l-1.66 2.5a79.64 79.64 0 0 1 16.23 14.16l2.27-1.96Zm-36.68-24.9a129.58 129.58 0 0 0-10.53-3.61l-.85 2.88c3.6 1.06 7.03 2.24 10.28 3.52l1.1-2.8Zm-10.53-3.61A160.1 160.1 0 0 0 236 522.2l-.66 2.92c3.21.73 6.53 1.6 9.97 2.62l.85-2.88Zm-30.88-5.58c-7.7-.36-14.68.22-20.99 1.6l.65 2.94a77.33 77.33 0 0 1 20.2-1.55l.14-3Zm-40.53 9.6a56.91 56.91 0 0 0-15.3 14.59l2.44 1.76a53.9 53.9 0 0 1 14.48-13.83l-1.62-2.52Zm-24.86 33.37a93.72 93.72 0 0 0-4.43 20.53l2.99.31c.7-6.75 2.1-13.49 4.28-19.87l-2.84-.97Zm-4.55 41.5c.33 3.58.83 7.06 1.48 10.4l2.94-.58a99.54 99.54 0 0 1-1.43-10.09l-2.99.28Zm1.48 10.4c.66 3.34 1.39 6.6 2.2 9.77l2.9-.74c-.79-3.11-1.51-6.32-2.16-9.61l-2.94.58Zm8.3 28.83a147.64 147.64 0 0 0 8.53 18.12l2.63-1.46a144.57 144.57 0 0 1-8.36-17.75l-2.8 1.1Zm19.5 34.88a143.6 143.6 0 0 0 13.2 15.06l2.12-2.13a140.87 140.87 0 0 1-12.93-14.74l-2.4 1.82Zm28.31 28.2c5.4 4.12 10.95 7.83 16.57 11.19l1.54-2.58a172.74 172.74 0 0 1-16.29-11l-1.82 2.39Zm34.2 20.58c6.2 2.93 12.35 5.51 18.36 7.8l1.07-2.8a254.95 254.95 0 0 1-18.14-7.71l-1.28 2.7ZM274.32 741c3.28 1.05 6.45 2.02 9.5 2.93l.86-2.87a568.3 568.3 0 0 1-9.44-2.92l-.92 2.86Z" fill="#CFCFCF"/><path d="M293.98 733.22s5.06 3.75.09 6.3c-2.03 1.08-9.6 4.1-17.55 7.74l-23.85 10.35s-3.36 1.72-5.47-.42c-2.12-2.14-1.97-7.44-1.85-8.48.07-.81.15-14.54 1.03-19.91.22-1.5 1.19-3.64 4.52-2.65l22.97 5.81c2.7.62 7.63-.16-1.43-4.11l-25.31-11.09s-2.78-1.34-4.13-6.27l-2.87-10.73s0-4.62 5.63-.26c15.2 9.74 32.52 22.56 48.22 33.71Z" fill="#CFCFCF"/><circle cx="15.44" cy="91.26" r="15.19" fill="#FDA9A9"/><circle cx="15.44" cy="91.26" r="9.8" fill="#fff"/><circle cx="354.04" cy="277.4" r="15.19" fill="#FDA9A9"/><circle cx="354.04" cy="277.4" r="9.8" fill="#fff"/><circle cx="28.52" cy="522.94" r="15.19" fill="#FDA9A9"/><circle cx="28.52" cy="522.94" r="9.8" fill="#fff"/></svg>