<svg width="501" height="501" fill="none" xmlns="http://www.w3.org/2000/svg"><path d="M467.3 125.4A248.9 248.9 0 0 1 501 250.3h-75A174.2 174.2 0 0 0 346 103.5l37.6-65c33.5 21 62.5 50.2 83.6 86.9Z" fill="#C377FF"/><path d="m403.6 101.5.8-.9 3.1 3-.9 1-3-3.1Zm4.2-2.7 1 1.4c.2.5.3 1 .3 1.6l-.3 1.6-1 1.5a4.5 4.5 0 0 1-3 1.3 4.2 4.2 0 0 1-3.1-1.3 5 5 0 0 1-1.1-1.6c-.3-.6-.4-1.2-.3-1.8h1.3c0 .5.1 1 .3 1.3a3.3 3.3 0 0 0 1.6 1.7c.4.2.7.2 1.1.2.4 0 .7 0 1-.3.4-.1.7-.3 1-.7.3-.3.6-.6.7-1a2.7 2.7 0 0 0 0-2c0-.4-.3-.7-.6-1-.3-.3-.6-.6-1-.7a3 3 0 0 0-1.3-.2v-1.4c.6 0 1.1 0 1.7.3a5 5 0 0 1 1.7 1ZM409.4 112.7l.6-3.8 1.4.4-.8 4.7-1.2-1.3Zm-3.2-3.4 4.7-4.3 1 1-4.7 4.4-1-1Zm2.6-1 1-.8 1.4 1.6-.9.8-1.5-1.6Zm2.1 1.6-.8-1.1 4-.5 1 1.2-4.2.4ZM413 117c-.4-.5-.6-1-.8-1.6a3.2 3.2 0 0 1 1.1-3.1 3.2 3.2 0 0 1 3.3-.6c.5.2 1 .5 1.4 1 .5.5.8 1 .9 1.6a3 3 0 0 1-.1 1.7c-.2.6-.5 1-1 1.5a3.2 3.2 0 0 1-3.3.6c-.5-.2-1-.6-1.4-1Zm1-.8.9.6h1c.3 0 .6-.2 1-.5l.6-.9v-1a2 2 0 0 0-.4-.8 1.8 1.8 0 0 0-1.8-.6c-.3 0-.7.2-1 .4-.3.3-.5.6-.6 1a1.8 1.8 0 0 0 .3 1.8ZM416.5 121l5-4 1 1.2-2 1.6 2 2.5 2-1.6.9 1.2-5 4-1-1.2 2-1.6-2-2.5-2 1.5-.9-1.1ZM423.7 130.5c-.4-.5-.6-1-.7-1.7a3.2 3.2 0 0 1 1.4-3 3.2 3.2 0 0 1 3.3-.3c.5.3 1 .6 1.3 1.2.4.5.6 1 .7 1.7a3 3 0 0 1-.2 1.6c-.2.5-.6 1-1.1 1.4a3.2 3.2 0 0 1-3.3.3c-.6-.3-1-.6-1.4-1.2Zm1-.7c.2.3.5.5.8.6.3.2.6.2 1 .2.3 0 .6-.2 1-.5l.7-.8.2-1a2 2 0 0 0-.4-.9 1.8 1.8 0 0 0-1.7-.8c-.4 0-.7.2-1 .5-.4.2-.6.5-.8.8a1.8 1.8 0 0 0 .2 1.9ZM426.4 134.1l5.3-3.5.9 1.3-2.4 4.7-.3-.5 5.2-.3.8 1.2-5.3 3.5-.8-1.1 4-2.6v.2l-4.6.2-.4-.5 2.1-4.3.2.2-4 2.7-.7-1.2ZM431.9 142.7l5.5-3.3.7 1.3-3.6 2.1 5.4 1 .7 1.1-5.5 3.3-.8-1.3 3.7-2.2-5.4-.9-.7-1.1ZM438.1 153.7l2-1-.2.3-.9-1.7c-.4-.7-.6-1.4-.5-2 .1-.7.5-1.2 1.1-1.5a2 2 0 0 1 1.9 0c.6.2 1 .7 1.5 1.5l1.4 2.6-5.7 3-.6-1.2Zm-2.2-4 3 .3.7 1.4-3-.3-.7-1.4Zm4.6 2.8 2.5-1.4-.3.4-.8-1.5c-.2-.5-.4-.7-.7-.9h-1c-.6.4-.7 1-.2 1.8l.8 1.6h-.3ZM441.2 159.8l5.8-2.6 1.3 2.8c.3.7.5 1.3.4 1.8 0 .6-.4 1-.8 1.2-.5.2-1 .2-1.4 0-.5-.3-.8-.8-1.1-1.4h.4c.3.7.4 1.3.3 1.7 0 .5-.4.9-.8 1-.6.3-1 .3-1.5 0-.5-.2-.9-.7-1.3-1.5l-1.3-3Zm1.6.9.7 1.5c.2.4.3.7.5.8h.7c.3 0 .4-.3.5-.5l-.2-1-.7-1.5-1.5.7Zm2.4-1.1.6 1.4c.2.4.4.6.6.7h.6c.3 0 .4-.3.4-.5l-.1-.9-.7-1.4-1.4.7ZM445.8 170.6c-.2-.5-.3-1-.2-1.5 0-.5.3-1 .6-1.3a4 4 0 0 1 1.6-1c.7-.4 1.3-.5 1.8-.5.6 0 1 .3 1.4.6a3.3 3.3 0 0 1 1.1 3c0 .4-.2 1-.6 1.4-.3.4-.8.8-1.4 1-.6.3-1.2.4-1.8.3a3 3 0 0 1-1.5-.6c-.4-.4-.8-.8-1-1.4Zm-3.4-2.5 8-3.3.6 1.3-1.4.6-1.6.6-1.5.8-3.6 1.4-.5-1.4Zm4.5 1.8.6.8 1 .4c.3 0 .6 0 1-.2.4-.1.7-.4.9-.6l.4-1c0-.2 0-.6-.2-.9a2 2 0 0 0-.6-.8c-.2-.2-.5-.3-.9-.4-.3 0-.7 0-1 .2l-1 .6c-.2.3-.3.6-.3 1l.1 1ZM448.6 178a4 4 0 0 1-.2-2c0-.6.3-1.1.7-1.5.3-.5.8-.8 1.4-1 .6-.2 1.2-.3 1.7-.2.6 0 1.1.3 1.5.7.5.4.8.9 1 1.5.2.6.3 1.1.2 1.7 0 .5-.3 1-.7 1.5a3.5 3.5 0 0 1-2 1l-1.7-5 .9-.3 1.5 4.3-.4-.5c.3 0 .6-.3.8-.5l.4-.8-.1-1a1.7 1.7 0 0 0-1.4-1.2 2 2 0 0 0-1 0l-.3.2a2 2 0 0 0-.8.6c-.2.2-.4.5-.4.9l.1 1.1.5.9.8.5-.6 1c-.4 0-.8-.3-1.1-.7a4 4 0 0 1-.8-1.3ZM450.3 182.4l6.1-2 .5 1.5-3.6 3.9-.2-.6 5.2 1.2.4 1.3-6.1 2-.4-1.3 4.5-1.5v.3l-4.5-1-.2-.7 3.1-3.5.2.2-4.6 1.5-.4-1.3ZM453.9 195a4 4 0 0 1 0-2c0-.6.3-1 .7-1.5.5-.4 1-.7 1.6-.8.6-.2 1.2-.2 1.7 0 .6.1 1 .4 1.4.8.4.4.7 1 .9 1.6v1.7a3 3 0 0 1-.8 1.4 3.5 3.5 0 0 1-2 1l-1.4-5.3 1-.2 1.1 4.4-.4-.5c.3 0 .6-.2.9-.5l.4-.8v-1a1.7 1.7 0 0 0-1.3-1.3 2 2 0 0 0-1 0l-.2.1a2 2 0 0 0-1 .5l-.4 1v1l.4 1 .7.6-.6 1c-.4-.2-.8-.5-1-.9a4 4 0 0 1-.7-1.4ZM455.2 199.6l6.2-1.4.3 1.5-2.5.6.7 3.1 2.5-.5.3 1.4-6.2 1.4-.3-1.5 2.4-.5-.7-3.2-2.4.6-.3-1.5ZM457 208l6.2-1 .3 1.5-4.2.7 4.8 2.7.2 1.4-6.3 1-.2-1.4 4.1-.7-4.7-2.8-.3-1.3Z" fill="#fff"/><path d="m126 34 37.4 65a174.9 174.9 0 0 0-87.3 143.8H1C3.6 159.2 48 78.8 125.8 34Z" fill="#8BB7F8"/><path d="M48 205.8a5 5 0 0 1-.7 1.7c-.3.5-.7 1-1.1 1.3a4.2 4.2 0 0 1-3.3.6 4.3 4.3 0 0 1-2.8-1.9c-.3-.5-.5-1-.6-1.6v-1.8l.7-1.7a4.3 4.3 0 0 1 2.7-1.9h1.8l1.6.7c.5.3.9.7 1.1 1.2a4.8 4.8 0 0 1 .6 3.4Zm-1.3-.2v-1.2a2.8 2.8 0 0 0-1.2-1.9 3 3 0 0 0-1.1-.4 3 3 0 0 0-3 1.2c-.3.3-.4.7-.5 1v1.3a2.8 2.8 0 0 0 1.2 1.8l1 .5h1.3a2.8 2.8 0 0 0 1.8-1.2l.5-1.1ZM49.7 197.6l-5.3-1.4.5-.2-.7 2.5-1.2-.3 1.5-5.8 1.2.3-.7 2.5-.2-.4L50 196l-.4 1.5ZM51 192.5l-6-1.8.3-1.4 2.5.7 1-3.1-2.6-.7.5-1.5 6.1 1.8-.4 1.5-2.4-.7-1 3 2.5.8-.4 1.4ZM54.5 181.7c-.2.6-.5 1-1 1.5a3.2 3.2 0 0 1-3.2.6 3.2 3.2 0 0 1-2-4.3c.2-.6.6-1.1 1-1.5a3 3 0 0 1 1.5-.8c.5-.1 1.1 0 1.7.2a3.2 3.2 0 0 1 2 4.3Zm-1.2-.5a2 2 0 0 0 .1-1c0-.3-.2-.6-.4-.8-.3-.3-.6-.5-1-.6-.4-.1-.7-.2-1-.1-.4 0-.7.2-1 .4a2 2 0 0 0-.5.8 1.8 1.8 0 0 0 .4 1.9c.2.3.5.5.9.6.4.1.8.2 1.1 0a1.8 1.8 0 0 0 1.4-1.2ZM56.7 171.8l.2.5-5-2 .5-1.5 5 2-.4.3 1.2-3 .2.5-5-2 .5-1.4 6 2.3-3.6 8.8-6-2.4.6-1.4 5.1 2-.5.3 1.2-3ZM62 163a4 4 0 0 1-1.1 1.5c-.5.3-1 .5-1.6.6-.6 0-1.2 0-1.7-.3-.6-.3-1-.7-1.4-1.1-.3-.5-.5-1-.6-1.6 0-.5.1-1.1.4-1.7.2-.6.6-1 1-1.3a3 3 0 0 1 1.6-.6 3.5 3.5 0 0 1 2.1.5l-2.2 4.9-1-.4 2-4.1v.6l-1-.2c-.3 0-.6.2-.8.3-.3.2-.5.5-.6.8a1.7 1.7 0 0 0 .2 1.9l.7.6h.2l1 .3c.4 0 .7-.2 1-.4.3-.2.5-.6.7-1l.2-.9-.1-.9 1.2-.3.2 1.3c0 .4-.1 1-.4 1.4ZM64 158.5l-5.7-3 .7-1.3 2.3 1.2 1.5-2.8-2.3-1.2.7-1.4 5.7 3-.7 1.3-2.3-1.2-1.4 3 2.2 1-.7 1.4ZM68 150.8l-5.5-3.2.7-1.3 3.7 2-2-5 .8-1.3 5.5 3.2-.7 1.3-3.7-2 2 5-.8 1.3ZM74.2 140.5A4 4 0 0 1 73 142c-.6.3-1.1.4-1.7.4-.6 0-1.1-.2-1.6-.5-.6-.4-1-.8-1.2-1.3-.3-.5-.4-1-.4-1.6 0-.6.2-1.1.6-1.7.3-.5.7-1 1.2-1.2a3 3 0 0 1 1.6-.3 3.5 3.5 0 0 1 2 .8l-2.8 4.5-.8-.5 2.4-3.9v.7l-1-.3c-.3 0-.6 0-1 .2-.2.1-.4.3-.6.7a1.7 1.7 0 0 0 0 1.9c0 .2.3.4.6.6l.2.2c.3.2.7.3 1 .3.3 0 .7 0 1-.3.3-.2.6-.4.8-.8l.3-.9v-1l1.2-.1c.2.4.2.9.1 1.3 0 .5-.3 1-.6 1.4ZM81 130.4l-3.9.2.1-1.5 4.8-.1-1 1.4Zm-2.7 3.8-5.2-3.7.8-1.2 5.3 3.7-.9 1.2Zm-1.5-2.4-1-.7 1.2-1.8 1 .8-1.2 1.7Zm1.1-2.3-1 1-1.2-3.8 1-1.3 1.2 4ZM87.5 121.9l-3.8-.1.2-1.5 4.7.2-1 1.4Zm-2.8 3.5-5-4 .9-1.1 5 4-1 1.1Zm-1.4-2.4-1-.8 1.4-1.7 1 .8-1.4 1.7Zm1.3-2.3-1 1-1-3.8 1-1.3 1 4.1ZM88.9 120.2l-1-1a7.2 7.2 0 0 1 .3-.1c.2-.2.2-.4.2-.6l-.3-.6-.5-.7-.7-.7-1.8-1.7 3.3-4 4.9 4.3-1 1.1-4.2-3.6h.6l-2 2.3-.1-.5 1.2 1.1a15.5 15.5 0 0 1 1.8 2.2l.3 1c0 .3-.1.6-.4 1l-.3.2-.3.3ZM94.9 113.3l-4.7-4.4 1-1 3.1 2.8-.6-5.4 1-1 4.6 4.4-1 1-3.1-2.8.6 5.4-1 1ZM103 105.1a4 4 0 0 1-1.7 1c-.5.2-1.1.2-1.7 0-.5-.1-1-.4-1.5-.9-.4-.4-.7-1-.8-1.5-.2-.5-.2-1 0-1.6.1-.6.5-1 1-1.5.4-.4.9-.7 1.4-.9a3 3 0 0 1 1.6 0 3.5 3.5 0 0 1 1.8 1.3l-3.8 3.8-.7-.8 3.3-3.1-.2.6c-.3-.3-.6-.4-.9-.5h-.9c-.3 0-.6.2-.8.4a1.7 1.7 0 0 0-.5 1.8c0 .3.2.6.5.9l.1.2 1 .5h1l1-.6.5-.8.2-1 1.2.2c0 .4 0 .9-.3 1.3a4 4 0 0 1-.8 1.2ZM106.6 101.5l-4.2-4.8 1-1 1.8 2 2.4-2.2-1.7-2 1-1 4.4 4.8-1.1 1-1.7-1.8-2.4 2.1 1.7 1.9-1.2 1ZM114.3 94.8l-3.5-4.3.5.1-2 1.7-.8-1 4.6-3.8.8 1-2 1.6v-.5l3.6 4.2-1.2 1ZM120.5 92.9a3 3 0 0 1-.8.4l-1 .2-.1-1.3h.6c.2 0 .4-.2.5-.3.3-.2.4-.3.4-.6.1-.2 0-.4 0-.8l-.2-.9v-.2l-1.6-6 1.2-.8 1.8 7.3c.2.5.2 1 .2 1.3 0 .4-.1.7-.3 1l-.7.7Zm-.3-2.5-6.3-3.6 1.2-.9 5.3 3-.2 1.5Z" fill="#fff"/><path d="M402.4 338a174.2 174.2 0 0 1-63.9 64l37.5 65c36.8-21.3 68.6-52.1 91.3-91.5a249 249 0 0 0 33.4-116h-75c-1.4 26.7-9 53.6-23.3 78.5Z" fill="#FF6868"/><path d="m454.3 286.3 8.3 1.4-.6 3.4c-.1.7-.3 1.3-.7 1.8-.3.5-.7.8-1.2 1-.5.3-1 .3-1.6.2-.6 0-1.1-.3-1.5-.7-.4-.3-.7-.8-.8-1.4-.2-.5-.2-1.2 0-1.9l.3-2.6.7.9-3.2-.6.3-1.5Zm2.7 2 .8-.5-.4 2.4c0 .7 0 1.3.2 1.6.2.4.6.7 1.1.8.6 0 1 0 1.3-.3.4-.3.6-.8.7-1.5l.4-2.5.7.8-4.8-.8ZM452.1 297.8a4 4 0 0 1 .8-1.7c.4-.5.9-.8 1.4-1 .6-.2 1.1-.2 1.8 0 .6 0 1.1.3 1.5.7.4.4.7.8 1 1.4v1.8c-.2.6-.4 1-.8 1.5a3 3 0 0 1-1.3.9 3.5 3.5 0 0 1-2.3 0l1.1-5.3 1 .2-1 4.5-.1-.7h1l.8-.5c.2-.2.3-.5.4-.9v-1l-.6-.8a2 2 0 0 0-.9-.4h-.2a2 2 0 0 0-1 0c-.4.1-.7.3-.9.6l-.5 1v1c0 .3.2.6.4.9l-1.1.6c-.3-.4-.5-.8-.5-1.3v-1.5ZM450.5 304.8c-.2.5-.2 1-.1 1.5 0 .5.1 1 .4 1.3.2.3.5.5.9.6.4.1.9 0 1.2-.3.4-.3.7-.8.9-1.5l-.3-.2c-.1.4-.2.8-.1 1.2 0 .3.2.6.4.8.1.3.4.5.7.5.3.1.7 0 1-.1.3-.2.6-.5.9-1 .2-.3.4-.8.5-1.4l.2-1.2c0-.4 0-.8-.2-1.2h-1.1v2.2l-.3.7a1 1 0 0 1-.4.4l-.4.1a.6.6 0 0 1-.4-.2l-.1-.5v-.7l.3-1-1-.3-.3 1.2c0 .4-.2.7-.4.9-.2.2-.4.2-.6.2a.6.6 0 0 1-.4-.4l-.2-.6.1-.8a4.9 4.9 0 0 1 1-2l-.9-.7a5.2 5.2 0 0 0-1.3 2.5ZM446.8 309.7c0-.3.2-.5.4-.8l.6-.6 1 .8-.5.4-.3.6v.7c0 .2.3.4.5.6l.7.6.2.2 4.7 3.9-.4 1.4-5.8-4.9a4 4 0 0 1-.9-1 2 2 0 0 1-.3-.9v-1Zm1.7 2 7.2-1-.4 1.5-6 .7-.8-1.3ZM447.5 315.8l1.2.5a5.5 5.5 0 0 1-.1.3v.6l.5.5.8.4.9.4 2.3.9-1.6 4.9-6.1-2 .5-1.5 5.2 1.8-.5.2 1-3 .3.5-1.6-.6a15.4 15.4 0 0 1-2.5-1.3 2 2 0 0 1-.7-.8v-1l.2-.4.2-.4ZM447.3 329.3c-.2.8-.6 1.3-1.1 1.6a2 2 0 0 1-1.7 0 2 2 0 0 1-1.3-1.2c-.2-.6-.1-1.3.2-2.1l1-2.8 6 2.2-.5 1.4-2-.7-.6 1.6Zm-2.8-1.5c-.2.4-.2.8-.1 1 0 .4.3.6.6.7h.9l.6-.9.5-1.3-2-.7-.5 1.2ZM441.3 332.8l5 2.1-.4.2 1-2.4 1.2.5-2.3 5.5-1.2-.5 1-2.4.2.5-5-2.2.5-1.3ZM437.5 341.4l1.2.5h.2l2.1 1c.4.2.8.2 1 .1.4-.1.7-.4 1-1l.2-1v-1h1.2v1.3c0 .5-.2 1-.4 1.5-.4.8-1 1.4-1.5 1.6-.6.3-1.4.2-2.2-.2l-3.4-1.5.6-1.3Zm.8-1.9c.2-.4.4-.8.7-1a2 2 0 0 1 1-.5c.3 0 .7 0 1 .2.3.1.6.3.8.6.2.3.3.6.2 1 0 .5-.1 1-.4 1.6l-.8 1.7-.9-.5.8-1.5.2-1c-.1-.3-.2-.5-.5-.6a.8.8 0 0 0-.7 0l-.6.8a2 2 0 0 0-.2 1c0 .3.2.6.4.8l-.9-.1c-.3-.3-.4-.7-.5-1 0-.5.1-1 .4-1.5ZM435.1 346.1l5 2.5-.6.2 1.2-2.3 1.2.5-2.8 5.4-1.1-.6 1.2-2.3.1.5-4.8-2.5.6-1.4ZM431.3 349.6l2 1.9-1-.3.6-.5.8.1a1 1 0 0 1 .4 1.4 1 1 0 0 1-1.3.3 1.6 1.6 0 0 1-.5-.3l-.3-.4-1.2-1.4.5-.8ZM427.5 359.8l1 .7h.4l1.9 1.2c.4.2.7.3 1 .2.4-.1.7-.4 1-.8l.4-1v-1h1.3l-.1 1.4-.6 1.4c-.5.8-1 1.3-1.7 1.5-.7.2-1.4 0-2.2-.5l-3.2-1.9.8-1.2Zm1-1.8.8-1a2 2 0 0 1 1-.3c.4 0 .7 0 1 .3.3.2.6.4.7.7.2.3.2.7.2 1l-.6 1.5-1 1.6-.9-.5 1-1.5.3-1c0-.2-.2-.4-.4-.5a.8.8 0 0 0-.7 0c-.3 0-.5.2-.7.6a2 2 0 0 0-.3 1l.3.9-.9-.3c-.2-.3-.3-.7-.3-1.1 0-.4.1-.9.4-1.4ZM424 365.4l5.2 3.6-.8 1.2-2.2-1.5-1.8 2.7 2.1 1.5-.8 1.2-5.3-3.6.8-1.2 2.1 1.4 1.9-2.7-2.1-1.4.8-1.2ZM417 375c.4-.7 1-1 1.5-1.3.5-.3 1-.4 1.7-.3.5 0 1 .3 1.6.7.5.3.8.8 1 1.3.3.5.4 1 .3 1.7 0 .5-.3 1-.7 1.6-.4.5-.8.8-1.3 1a3 3 0 0 1-1.7.3 3.5 3.5 0 0 1-2-1l3.3-4.3.8.6-2.8 3.7.1-.7c.3.2.6.4 1 .4l.9-.1c.3-.1.5-.4.7-.6.3-.3.4-.6.4-1l-.1-.9a2 2 0 0 0-.7-.8l-.2-.1a2 2 0 0 0-1-.4c-.3 0-.6 0-1 .2-.3.1-.5.4-.8.7-.2.3-.4.6-.4.9v1h-1.3v-1.3c.1-.5.4-1 .7-1.4ZM412.3 381l4.9 4.2-4 4.7-4.9-4.1 1-1.1 4.2 3.5h-.5l2.5-3v.6l-4.2-3.6 1-1.1ZM404.2 390.2c.3-.3.7-.6 1.2-.8h1.5c.5.2 1 .5 1.6 1 .5.5 1 1 1.1 1.5.2.5.2 1 .1 1.5a3.3 3.3 0 0 1-2.2 2.3 3 3 0 0 1-1.6 0c-.5-.1-1-.4-1.5-.8-.5-.5-.8-1-1-1.5a3 3 0 0 1 0-1.7c0-.5.3-1 .8-1.5Zm.7-4.1 6.4 6-1 1-1-1-1.3-1.2-1.3-1.1-2.8-2.6 1-1.1Zm.3 4.9-.5.8v1l.7 1 1 .5h1l.8-.6c.2-.3.4-.6.4-.9v-1l-.6-.9-1-.5h-1a2 2 0 0 0-.8.6ZM398.6 396c.4-.5 1-.8 1.5-1a3.2 3.2 0 0 1 3.2 1 3.2 3.2 0 0 1 .9 3.1c-.2.6-.5 1-1 1.5s-1 .8-1.5 1a3 3 0 0 1-1.7 0c-.6-.1-1-.4-1.5-.9a3.2 3.2 0 0 1 0-4.7Zm.9.9a2 2 0 0 0-.5.9v1c0 .3.3.6.5.9.3.3.6.5 1 .5.3.1.6.2 1 0 .3 0 .5-.2.8-.4.3-.3.4-.6.5-1v-.9c0-.3-.3-.6-.6-1l-.9-.5a1.8 1.8 0 0 0-1.8.5ZM394.9 399.7l4.3 4.8-1.1 1-3.5-3.8-2.2 2 3.4 3.8-1.1 1-4.3-4.7 4.5-4Zm-5.2 2.7 1 1.1-.3.2 1.1-1 .9 1-1.9 1.7-1.8-2 1-1ZM386.2 407.3a4 4 0 0 1 1.7-1c.6 0 1.1 0 1.7.2.5.2 1 .5 1.4 1a3 3 0 0 1 .6 3.2 3.4 3.4 0 0 1-2.6 2.2c-.5.1-1 0-1.6-.1a3.5 3.5 0 0 1-1.7-1.5l4-3.4.7.8-3.5 2.9.3-.6c.2.3.5.5.8.6h1c.2 0 .5-.1.8-.4.3-.2.5-.5.6-.8v-.9a2 2 0 0 0-.4-1l-.2-.1a2 2 0 0 0-.8-.6h-1c-.4 0-.7.2-1 .5l-.7.7a2 2 0 0 0-.2 1l-1.2-.3c0-.4 0-.8.3-1.3a4 4 0 0 1 1-1.1ZM380.1 412.1c.5-.4 1.1-.6 1.7-.7a3.2 3.2 0 0 1 3 1.2 3.2 3.2 0 0 1 .5 3.3c-.3.5-.6 1-1.2 1.4-.5.4-1 .6-1.5.7-.5.1-1 0-1.5-.2l.5-1.2a1.8 1.8 0 0 0 1.8-.3c.3-.2.5-.5.6-.8.1-.3.2-.6.1-1 0-.3-.2-.6-.4-1l-.9-.7h-1a2 2 0 0 0-1.5 1l-.1 1-1.3.2c-.1-.5 0-1 .1-1.6.3-.5.6-.9 1.1-1.3ZM374.7 416.1c.6-.4 1.1-.6 1.7-.7a3.2 3.2 0 0 1 3 1.4 3.2 3.2 0 0 1 .4 3.3c-.3.5-.7 1-1.2 1.4-.6.3-1 .5-1.6.6-.5 0-1 0-1.5-.2l.5-1.3a1.8 1.8 0 0 0 1.8-.2l.7-.8c.1-.3.2-.6.1-1 0-.3-.1-.6-.4-1l-.8-.7c-.3-.1-.6-.2-1-.1a2 2 0 0 0-1.5 1c-.2.3-.2.7-.2 1l-1.3.2c-.1-.6 0-1 .2-1.6.2-.5.6-.9 1.1-1.3Z" fill="#fff"/><path d="m125.9 467 37.5-65a174.9 174.9 0 0 0 166.8 4.5l36.7 65.5a249.8 249.8 0 0 1-241-5Z" fill="#FA9A55"/><path d="m313 451.7 4 2.9-1 1.1-4.7-3.5 1.6-.5Zm5.2-1.9 2.7 8-1.4.5-2.8-8 1.5-.5Zm.1 3.7.5 1.3-2.7 1-.5-1.3 2.7-1Zm-2.7 1.5 1.4-.3-1.3 4.9-1.6.5 1.5-5.1ZM307.2 453.4c.6-.2 1.2-.3 1.8-.1a3.2 3.2 0 0 1 2.4 2.2 3.2 3.2 0 0 1-.8 3.3c-.4.4-1 .7-1.6.9-.6.1-1.2.2-1.8 0a3 3 0 0 1-1.5-.7c-.4-.4-.7-.9-.9-1.5a3.2 3.2 0 0 1 .8-3.2c.4-.4 1-.7 1.6-1Zm.3 1.2a2 2 0 0 0-.8.5c-.3.2-.4.5-.5.9v1l.6 1c.3.3.6.4.9.5h1c.3-.2.6-.3.8-.6.3-.2.4-.5.5-.8V456l-.6-1a1.8 1.8 0 0 0-1.9-.4ZM302.1 455l1.6 6.1-1.4.4-.7-2.5-3.1.8.6 2.5-1.4.4-1.6-6.3 1.5-.3.6 2.4 3.1-.8-.6-2.4 1.4-.4ZM290.1 457.6h.4c1.3-.3 2.4-.3 3.3.2a3 3 0 0 1 1.5 2.1c.3 1 0 2-.6 2.6-.6.7-1.6 1.2-2.9 1.5h-.2l-.1.1c-1.4.3-2.5.2-3.4-.2a2.8 2.8 0 0 1-1.6-2.1c-.2-1 0-2 .6-2.7.7-.7 1.7-1.2 3-1.5Zm.3 1.2c-.6.2-1.2.3-1.6.6a2 2 0 0 0-.8.9 2 2 0 0 0 0 1.2c0 .4.2.8.5 1 .2.3.6.4 1 .5a5.2 5.2 0 0 0 1.9-.2c.7-.1 1.3-.3 1.6-.6.4-.2.7-.5.8-.8a2 2 0 0 0 .1-1.2 2 2 0 0 0-.5-1 2 2 0 0 0-1-.5h-1.8l-.2.1Zm.1-3.5 2.3 11-1.4.3-2.3-11 1.4-.3ZM284 459l1 6.2-1.6.3-.6-4.2-2.9 4.7-1.3.2-1-6.3 1.5-.2.6 4.1 2.9-4.7 1.4-.2ZM270.8 461.4l.4 4.4 2.5-.3v-1a22.3 22.3 0 0 1 0-2c0-.3 0-.5.2-.7 0-.2.2-.4.5-.5l1.5.1c-.3 0-.5.1-.6.3l-.3.7v2l.1 2.3-5.2.5-.6-5.7 1.5-.1Zm5-2.7.3 2.7-7.7.8-.3-2.7 1.4-.1.1 1.4 5-.5-.2-1.5 1.4-.1ZM263.7 461.2a4 4 0 0 1 1.9.3c.5.2 1 .6 1.3 1 .3.5.5 1 .5 1.7s0 1.2-.3 1.7c-.2.5-.6 1-1 1.3-.6.3-1.1.5-1.8.5-.6 0-1.2 0-1.7-.3a3 3 0 0 1-1.2-1 3.5 3.5 0 0 1-.5-2.2l5.3-.4v1l-4.5.3.6-.3.3 1 .7.5c.3.2.6.2 1 .2a1.7 1.7 0 0 0 1.6-1v-1.3a2 2 0 0 0-.3-1c-.2-.2-.4-.5-.8-.6l-1-.2c-.4 0-.8.1-1 .3a2 2 0 0 0-.8.5l-.8-.8c.2-.4.6-.7 1-.9a4 4 0 0 1 1.5-.3ZM258.8 461.5l.2 6.4h-1.5v-2.5h-3.3v2.6h-1.5l-.1-6.3h1.5v2.5l3.3-.1v-2.5h1.4ZM249.6 461.7l-.1 6.4H248l.1-5.2h-3l-.2 5h-1.5l.2-6.4 6 .2ZM244 460v1.5h-.3 1.4v1.2h-2.5V460h1.4ZM241 461.4l-.5 6.4-1.5-.1.3-4.2-3.9 4-1.3-.2.4-6.4 1.5.1-.3 4.3 3.9-4h1.3ZM228.3 460.3l-.1 1.3v.2l-.2 2.3c0 .4 0 .8.3 1 .2.3.6.5 1.1.6h1.1l1-.5.4 1.2c-.4.2-.8.4-1.3.4h-1.5c-1 0-1.6-.3-2-.8-.5-.5-.7-1.2-.6-2.1l.4-3.8 1.4.2Zm2 .1c.5 0 1 .2 1.3.4.3.2.6.5.7.8.2.3.3.6.2 1 0 .3-.1.7-.3 1l-1 .5a4 4 0 0 1-1.5 0l-1.9-.1.1-1 1.8.2 1-.1.3-.6c0-.3 0-.5-.2-.7-.2-.2-.5-.3-.9-.3a2 2 0 0 0-1 .1c-.3.1-.5.4-.7.7l-.2-1c.2-.3.5-.6 1-.7.3-.2.8-.2 1.3-.2ZM225.6 460l-.2 1.2a4.8 4.8 0 0 1-.3 0h-.6l-.4.6-.3.9-.2 1-.5 2.4-5.1-.8 1-6.4 1.4.3-.8 5.5-.3-.5 3 .5-.4.3.4-1.6a15.4 15.4 0 0 1 .9-2.8c.2-.3.4-.6.7-.7.2-.2.5-.2 1-.2l.3.1.4.2ZM212.6 462.1c-.8-.1-1.4-.4-1.8-.9a2 2 0 0 1-.3-1.6 2 2 0 0 1 1-1.5c.5-.3 1.2-.3 2.1-.2l3 .6-1.3 6.3-1.5-.3.4-2-1.6-.4Zm1-3c-.5-.2-.9-.1-1.1 0-.3.2-.5.4-.5.8-.1.3 0 .6.2.8.2.2.5.4.9.5l1.3.2.5-2-1.4-.4ZM209.1 457l-1.4 6.3-1.5-.4.6-2.5-3.1-.8-.6 2.6-1.5-.4 1.5-6.2 1.4.3-.5 2.5 3 .7.7-2.4 1.4.3ZM198 454c.6.3 1.1.6 1.5 1a3.2 3.2 0 0 1 .9 3.2 3.2 3.2 0 0 1-2.4 2.3c-.6.1-1.2 0-1.8-.1-.7-.2-1.2-.5-1.6-.9a3 3 0 0 1-.9-1.4v-1.8a3.2 3.2 0 0 1 2.5-2.3h1.8Zm-.4 1.3a2 2 0 0 0-1 0c-.3 0-.6.2-.8.5-.3.2-.5.5-.6 1v1c0 .4.2.6.4.9l1 .5h1c.2 0 .5-.2.8-.5.2-.2.4-.5.5-1v-1a1.8 1.8 0 0 0-1.3-1.4ZM190.6 451.8c.6.2 1.1.6 1.6 1a3.2 3.2 0 0 1 .7 3.2c-.2.6-.5 1.1-1 1.5-.4.4-1 .6-1.5.7-.6.1-1.2 0-1.8-.1-.6-.2-1.1-.5-1.5-.9-.4-.4-.6-.8-.7-1.4l1.3-.3a1.8 1.8 0 0 0 1.3 1.4h1c.3 0 .6-.2.9-.4.2-.2.4-.5.5-1 .2-.3.2-.7.1-1 0-.4-.2-.7-.4-1a2 2 0 0 0-1.8-.5c-.3 0-.6.2-.9.4l-.9-1c.4-.4.9-.6 1.4-.7.5-.1 1 0 1.7.1ZM185 450l-1.8 5.2-.2-.5 2.4 1-.4 1.1-5.6-2 .4-1.2 2.4.9-.4.2 1.9-5.2 1.4.5ZM175.3 450.9c-.7-.3-1.2-.8-1.5-1.3a2 2 0 0 1 0-1.6c.3-.7.7-1.1 1.3-1.3.6-.2 1.3 0 2 .3l2.8 1.1-2.4 6-1.4-.6.8-2-1.6-.6Zm1.6-2.9c-.4-.1-.8-.2-1-.1-.4.1-.6.3-.7.7-.1.3-.1.6 0 .8.2.3.4.5.9.6l1.2.6.8-2-1.2-.6Z" fill="#fff"/><path d="M76 250.4H.8A250 250 0 0 0 117.8 462l37.8-64.9A175 175 0 0 1 76 250.4Z" fill="#5ED940"/><path d="m80.1 369.5-1.6 4.7-1.4-.6 2-5.6 1 1.5Zm3.3 4.5-6.9 4.9-.9-1.3 6.9-4.9.9 1.3Zm-3.5 1.2-1.1.8-1.7-2.4 1.1-.7 1.7 2.3Zm-2.2-2.2.7 1.2-5.1.2-1-1.4h5.4ZM76.8 364.4c.4.6.6 1.1.6 1.7a3.2 3.2 0 0 1-1.4 3 3.2 3.2 0 0 1-4.7-1l-.6-1.8c0-.6 0-1.1.3-1.6.3-.6.7-1 1.2-1.3a3.2 3.2 0 0 1 4.6 1Zm-1 .7a2 2 0 0 0-.8-.7c-.3-.1-.6-.2-1-.1l-1 .3c-.3.3-.6.5-.7.8-.2.3-.2.6-.2 1l.3 1 .7.6 1 .2c.3 0 .7-.2 1-.4.4-.2.6-.5.8-.8a1.8 1.8 0 0 0-.1-1.9ZM74 360l-5.6 3.3-.8-1.4 2.6-4.5.3.5h-5.3l-.7-1.2 5.5-3.3.7 1.2-4.1 2.5v-.3h4.6l.4.6-2.3 4.1-.2-.2 4.1-2.4.7 1.1ZM67.3 348.3l-1.2.6-.2.2-2 1c-.4.3-.6.6-.7 1 0 .3 0 .7.2 1.1l.7 1 .8.5-.7 1-1-.8-1-1.2c-.4-.8-.5-1.6-.4-2.2.2-.7.7-1.2 1.5-1.7l3.3-1.7.7 1.2Zm1 1.7.4 1.3c0 .4 0 .7-.2 1-.2.3-.4.6-.8.8l-1 .2c-.3 0-.6-.2-1-.4a4 4 0 0 1-1-1.3L64 350l.9-.5.8 1.5c.3.5.5.8.7.8h.7c.2-.2.4-.3.4-.6s0-.6-.2-1a2 2 0 0 0-.7-.7c-.3-.2-.6-.2-1-.2l.7-.6c.4 0 .8 0 1.2.2l.9 1.1ZM65.2 344.4l-5.7 2.7-.7-1.3 2.4-1.2-1.4-2.9-2.4 1.2-.6-1.4 5.8-2.8.6 1.4-2.3 1 1.4 3 2.3-1 .6 1.3ZM59.3 333l-4 1.8 1 2.3.9-.4a20.7 20.7 0 0 1 2-.6h.7c.2 0 .4.2.5.4l.4 1.4-.4-.4c-.2 0-.5-.1-.8 0l-1 .1-1 .4-2 .8-2.1-4.9 5.3-2.2.5 1.4Zm4 4-2.4 1.1-3-7 2.4-1.1.6 1.3-1.3.5 2 4.6 1.2-.6.6 1.3ZM56.8 324.7l-1.2.4-.2.2-2.2.8c-.4.1-.6.4-.8.7-.1.3 0 .8.1 1.3l.5.9.8.7-.8.9c-.4-.2-.7-.6-1-1-.3-.4-.6-.8-.7-1.3-.4-.8-.4-1.6-.2-2.2.3-.7.8-1.1 1.7-1.5l3.5-1.3.5 1.4Zm.8 1.8c.2.5.2.9.2 1.3s-.1.7-.3 1c-.2.3-.5.5-.9.6-.3.2-.6.2-1 .1-.3 0-.6-.2-.9-.5a4 4 0 0 1-.8-1.4l-.6-1.7.9-.4.6 1.6.6 1h.7c.2-.1.4-.3.5-.6l-.1-.9a2 2 0 0 0-.6-.8c-.3-.2-.6-.4-1-.4l.8-.5c.4 0 .8.1 1.1.4.3.3.6.7.8 1.2Z" fill="#fff"/><path d="M338.6 99 376 34a250 250 0 0 0-241.8-4.8L172.5 94a175 175 0 0 1 166 5Z" fill="#7D4FFF"/><path d="m185.3 58.8-3-2.2.9-1.1 3.8 2.8-1.7.5Zm-4.4 1.4-1.8-6.2 1.4-.4 1.9 6.1-1.5.5Zm.3-2.8-.4-1.2 2.1-.6.4 1.2-2.1.6Zm2.3-1.2-1.4.3 1.4-3.8 1.5-.5-1.5 4ZM191.3 57.3c-.6.1-1.2.2-1.8 0a3.2 3.2 0 0 1-2.3-2.3 3.2 3.2 0 0 1 .9-3.2c.4-.4 1-.7 1.6-.9h1.8c.6.1 1 .4 1.4.8.4.4.7 1 .9 1.5a3.2 3.2 0 0 1-.9 3.2c-.4.4-1 .7-1.6.9ZM191 56c.4 0 .7-.2.9-.4l.5-.9v-1c-.2-.5-.3-.8-.6-1-.2-.3-.5-.5-.8-.6a2 2 0 0 0-1 0 1.8 1.8 0 0 0-1.4 1.3v1.2c.2.4.3.7.6 1a1.8 1.8 0 0 0 1.8.4ZM197.8 55.6l-1.3-5.3.5.2-2.6.6-.3-1.2 5.9-1.4.3 1.3-2.5.6.2-.5 1.2 5.4-1.4.3ZM205.7 54c-.7.2-1.3.1-1.8 0a3.2 3.2 0 0 1-2.2-2.5 3.2 3.2 0 0 1 1.1-3.2c.5-.3 1-.6 1.7-.7h1.8l1.4 1c.4.4.6 1 .7 1.6a3.2 3.2 0 0 1-2.7 3.8Zm-.2-1.2a2 2 0 0 0 .9-.4l.5-.8v-1.1c0-.5-.2-.8-.4-1-.2-.3-.5-.5-.8-.6a2 2 0 0 0-1 0 1.8 1.8 0 0 0-1.5 1.2v1c0 .5.2.8.5 1a1.8 1.8 0 0 0 1.8.7ZM214.2 52.6c-.5 0-1 0-1.4-.2-.5-.1-.9-.4-1.2-.9a4 4 0 0 1-.7-1.7l.1-2c.2-.4.5-.8.9-1.1.3-.3.8-.5 1.3-.6.7 0 1.2 0 1.8.2.5.1 1 .5 1.3 1 .3.3.6.9.7 1.5 0 .7 0 1.3-.2 1.8a3 3 0 0 1-1 1.3c-.4.4-1 .6-1.6.7Zm-3.1 2.7-1.4-8.6 1.5-.2.2 1.5.2 1.7.4 1.6.5 3.8-1.4.2Zm2.8-4 .9-.3.6-.8V49c0-.4-.2-.8-.4-1-.2-.3-.4-.5-.7-.6-.3-.1-.7-.2-1-.1a2 2 0 0 0-1 .4c-.2.2-.4.4-.5.8-.1.3-.2.6-.1 1 0 .5.2.8.4 1l.8.7h1ZM225.3 51.1l-.7-6.4 1.5-.1.7 6.3-1.5.2Zm-3.8-3.9c.9 0 1.5 0 2 .4.4.3.7.8.8 1.4a2 2 0 0 1-.6 1.7 3 3 0 0 1-1.9.8l-2.9.3-.7-6.3 1.5-.2.2 2h1.6Zm0 3.2c.5 0 .8-.1 1-.4.2-.2.3-.5.3-.8 0-.4-.2-.6-.5-.8-.2-.1-.5-.2-1-.1l-1.3.1.3 2.2 1.3-.2ZM232 50.7a4 4 0 0 1-2-.3c-.5-.3-1-.6-1.3-1.1-.3-.5-.5-1-.5-1.7 0-.6 0-1.2.3-1.7.2-.5.6-1 1-1.2.5-.3 1-.5 1.7-.6.7 0 1.2 0 1.7.3s1 .6 1.3 1.1a3.5 3.5 0 0 1 .5 2.2l-5.3.3v-1l4.4-.3-.5.4c0-.4-.1-.7-.3-1-.2-.2-.4-.5-.7-.6l-1-.2a1.7 1.7 0 0 0-1.6 1 2 2 0 0 0-.1 1v.3c0 .4.2.7.4 1 .2.3.4.5.7.6.4.2.8.2 1.2.2l1-.2.7-.6.8.8c-.2.4-.6.7-1 .9a4 4 0 0 1-1.5.4ZM240.9 52.6a3 3 0 0 1-1-.2c-.3 0-.6-.2-.8-.4l.6-1.1.5.3.6.1c.3 0 .5 0 .7-.2l.4-.7.4-.8.1-.2 2.3-5.7h1.5l-3 7c-.1.4-.3.8-.6 1a2 2 0 0 1-.8.7l-1 .2Zm1.2-2.2-3-6.6h1.6l2.4 5.4-1 1.2ZM255.3 50.2l-1.8-3.1 1.2-.7 2.4 3.8h-1.8Zm-3-2.6v-1.3h2.1v1.3h-2.1Zm2.6-.4-1.5-.2 2-3.2h1.7l-2.2 3.4Zm-6.4 2.9h-1.7l2.5-3.8 1.2.7-2 3Zm4.2 0h-1.5l.1-6.4h1.5l-.1 6.5Zm-1-2.5h-2.2v-1.3h2.2v1.3ZM249 47l-2-3.5h1.5l2 3.3-1.5.2ZM261.5 50.6a4 4 0 0 1-1.8-.5c-.5-.3-.9-.7-1.2-1.2-.2-.6-.3-1.1-.3-1.8 0-.6.2-1.2.6-1.6.3-.5.7-.9 1.2-1.1.5-.3 1.1-.4 1.7-.3.7 0 1.2.2 1.7.5s.8.7 1 1.2a3.5 3.5 0 0 1 .3 2.2l-5.3-.3v-1l4.6.3-.6.3c0-.4 0-.7-.2-1-.1-.3-.3-.5-.6-.7-.3-.2-.6-.3-1-.3a1.7 1.7 0 0 0-1.7.8 2 2 0 0 0-.2 1v.2c0 .4 0 .7.2 1 .1.3.4.6.7.8.3.2.6.3 1 .3l1-.1.8-.5.8 1c-.3.3-.7.5-1.2.7a4 4 0 0 1-1.5.1ZM273 51.7a2.6 2.6 0 0 1-2.3-1.7 4 4 0 0 1-.1-1.9c0-.7.3-1.3.6-1.8l1-1c.5-.1 1-.2 1.6-.1.6 0 1.1.3 1.6.6.4.3.8.7 1 1.3.2.5.3 1 .2 1.7 0 .7-.3 1.2-.6 1.7a3 3 0 0 1-1.3 1c-.5.2-1 .3-1.7.2Zm-3.8 1.8 1-8.6 1.5.1-.2 1.5-.3 1.7V50l-.5 3.8-1.5-.2Zm3.8-3c.3 0 .7 0 1-.2.3-.1.5-.3.7-.6.2-.3.4-.6.4-1l-.1-1.1-.6-.8-1-.4a2 2 0 0 0-1 .2c-.2 0-.5.3-.7.6-.2.2-.3.6-.4 1 0 .4 0 .8.2 1 0 .4.3.7.6.9.2.2.5.3.9.3ZM282 52.9l.3-1.3v-.3l.3-2.2c0-.5 0-.8-.2-1-.3-.4-.6-.6-1.2-.6h-1c-.4 0-.7.1-1 .3l-.4-1.2 1.3-.4h1.5c1 .2 1.6.5 2 1 .5.6.6 1.3.5 2.2l-.6 3.7-1.4-.2Zm-2-.2a3 3 0 0 1-1.1-.5 2 2 0 0 1-.8-.8v-1c0-.3.1-.7.3-1 .2-.2.5-.4 1-.5a4 4 0 0 1 1.5 0l1.9.3-.2 1-1.7-.3-1 .1c-.3.2-.4.3-.4.6 0 .2 0 .5.2.7.2.2.5.3.9.3h1l.7-.7.1 1c-.2.3-.5.5-.9.7-.4.1-.9.2-1.4 0ZM289 54.2a4 4 0 0 1-1.4-.5 2.9 2.9 0 0 1-1.3-2.3v-1.8l.5-1.4c.1-.4.3-.7.6-1l.8-.8 1-.4 1.3-.2h3V47h-2.7a7.2 7.2 0 0 0-1.3.2l-.7.4-.6.7a3.9 3.9 0 0 0-.4 1.7v.4l-.5-.7.8-.9 1.1-.5h1.3l1.5.7c.4.3.7.8.9 1.2.2.5.2 1 0 1.6a2.9 2.9 0 0 1-2 2.3c-.6.2-1.2.2-2 0Zm.3-1.1h1l.8-.6.4-.8-.1-1-.5-.7a2 2 0 0 0-1-.4h-1l-.7.5-.4.8a1.8 1.8 0 0 0 .6 1.8l1 .4ZM297.2 56c-.6-.2-1.2-.5-1.6-.9a3.2 3.2 0 0 1-1-3.1 3.2 3.2 0 0 1 2.3-2.4c.5-.2 1.1-.2 1.8 0 .6.1 1.2.4 1.6.8.4.4.8.8 1 1.4v1.7A3.2 3.2 0 0 1 299 56c-.6.2-1.2.2-1.8 0Zm.3-1.3h1l.8-.5.5-1V52c0-.3-.3-.6-.5-.8a2 2 0 0 0-.9-.5 1.8 1.8 0 0 0-1.8.5c-.3.3-.4.6-.5 1v1.1a1.8 1.8 0 0 0 1.4 1.3ZM303.6 57.5l1.4-5.3.3.4-2.5-.7.3-1.2 5.8 1.5-.3 1.3-2.5-.7.4-.3L305 58l-1.5-.4ZM312.7 60l.3-1.2v-.3l.7-2.1c.1-.5 0-.8-.1-1.1-.2-.3-.5-.6-1-.7l-1.1-.2c-.4 0-.7 0-1 .2l-.2-1.2c.4-.2.8-.2 1.3-.2s1 0 1.5.2c.9.3 1.5.7 1.9 1.3.3.6.4 1.3.1 2.2l-1 3.6-1.4-.4Zm-2-.4a3 3 0 0 1-1.1-.6 2 2 0 0 1-.6-1v-1c0-.3.2-.6.5-.8.2-.3.6-.4 1-.4s1 0 1.6.2l1.8.5-.3 1-1.7-.5c-.5-.2-.9-.2-1-.1-.3.1-.4.3-.5.5l.1.7c.2.2.4.4.8.5h1c.4 0 .6-.2.9-.5v1c-.3.3-.6.5-1 .6l-1.5-.1ZM316 61.1l2.2-6 1.4.5-.8 2.3 1.8.6-.4 1.3-1.8-.6-.9 2.4-1.4-.5Zm5.6 2c-.6-.2-1.1-.5-1.5-1a3.2 3.2 0 0 1-.6-3.2c.2-.6.6-1 1-1.4a3 3 0 0 1 1.5-.7c.6-.1 1.1 0 1.8.1.6.2 1 .6 1.4 1 .4.4.7 1 .8 1.5 0 .5 0 1.1-.2 1.7-.2.6-.5 1.1-1 1.5a3 3 0 0 1-1.4.7c-.6.1-1.2 0-1.8-.2Zm.4-1.2a1.8 1.8 0 0 0 1.8-.3c.3-.3.5-.6.6-1 .2-.4.2-.7.1-1 0-.4-.1-.7-.3-1l-.9-.5h-1l-.8.4-.6 1v1A1.8 1.8 0 0 0 322 62ZM327.8 65.4l2-5.1.2.4-2.4-1 .4-1.1 5.6 2.2-.5 1.2-2.4-1 .5-.2-2 5.1-1.4-.5ZM224.3 36l-1-8.4 3.4-.4c.8-.1 1.4 0 2 .1.5.2 1 .5 1.3.9.4.4.6 1 .6 1.5.1.6 0 1.2-.2 1.7-.2.4-.6.8-1.1 1.1-.5.3-1.1.5-1.9.6l-2.5.3.6-.8.3 3.1-1.5.2Zm1.2-3.2-.8-.7 2.5-.3c.7 0 1.2-.3 1.5-.6.3-.3.4-.8.4-1.3s-.3-1-.7-1.2c-.4-.2-.9-.3-1.6-.2l-2.5.3.6-.8.6 4.8ZM235.4 34.8a4 4 0 0 1-2-.2c-.5-.3-1-.6-1.3-1-.3-.6-.5-1.1-.5-1.7-.1-.7 0-1.3.2-1.8.3-.5.6-.9 1.1-1.2.5-.3 1-.5 1.7-.6.6 0 1.2 0 1.7.3.5.2.9.6 1.2 1a3.5 3.5 0 0 1 .6 2.2l-5.3.4-.1-1 4.5-.3-.5.3-.3-1-.8-.5c-.2-.2-.6-.2-1-.2a1.8 1.8 0 0 0-1.5 1 2 2 0 0 0-.1 1v.3c0 .4.2.7.4 1 .2.3.4.5.8.6.3.2.7.2 1 .2.4 0 .8-.1 1-.3.3-.1.6-.3.8-.6l.8.9-1 .9a4 4 0 0 1-1.4.3ZM245 32.9l-.4.4-.2-5.5h1.5l.2 5.4-.3-.3 3.1-.2-.3.4-.2-5.5h1.5l.2 6.4-9.4.3-.3-6.4h1.5l.3 5.5-.4-.4 3.1-.1ZM255 34a4 4 0 0 1-1.9-.3c-.5-.3-1-.7-1.2-1.2-.3-.5-.4-1-.4-1.7s.1-1.2.4-1.7c.3-.5.7-.9 1.2-1.2.5-.3 1-.4 1.7-.4.6 0 1.2.2 1.7.4.4.3.8.7 1.1 1.2a3.5 3.5 0 0 1 .4 2.2h-5.4v-1h4.6l-.6.3c0-.4 0-.7-.2-1-.2-.3-.4-.5-.7-.6-.2-.2-.6-.3-1-.3a2 2 0 0 0-.9.3c-.3.1-.5.3-.6.6a2 2 0 0 0-.3 1v.3c0 .3.1.7.3 1l.7.7 1.1.2c.4 0 .7 0 1-.2.3 0 .5-.2.8-.5l.8 1-1.1.7a4 4 0 0 1-1.5.3ZM260.1 34l.3-6.3h1.5l-.1 2.6 3.2.2.1-2.6h1.5l-.2 6.4h-1.5v-2.6l-3.2-.1v2.5H260ZM269.2 34.5l.5-6.4 1.5.2-.3 4.2 3.8-4 1.4.2-.5 6.4-1.5-.2.3-4.2-3.9 4-1.3-.2ZM282 35.8l.3-2.2.2.3-2-.2c-.8-.1-1.5-.4-2-.8a2 2 0 0 1-.5-1.7 2 2 0 0 1 1-1.6c.6-.3 1.3-.4 2.2-.3l3 .3-.9 6.4-1.3-.2Zm-4.6-.5 2-2.3 1.6.2-2 2.2-1.6-.1Zm5-2.1.3-2.9.1.4-1.7-.2-1.1.1c-.3.2-.4.4-.5.8 0 .7.4 1.2 1.3 1.3l1.8.2-.3.3ZM284.6 38l1-2.5.1.9a1 1 0 0 1-.6-.4 1 1 0 0 1-.2-.7 1 1 0 0 1 1-.9c.4 0 .6.2.7.4.2.2.2.5.2.8a1.5 1.5 0 0 1-.2.5l-.2.5-.9 1.5-1-.1Z" fill="#fff"/></svg>